<svg width="23" height="24" viewBox="0 0 23 24" fill="none" xmlns="http://www.w3.org/2000/svg">
<g clip-path="url(#clip0_494_4468)">
<path d="M0.0158104 7.91123C0.0158104 6.04055 0.0251058 4.16829 0.00961342 2.29761C0.0049657 1.60817 0.207916 1.04364 0.821415 0.713151C1.44886 0.374753 2.06855 0.450655 2.64952 0.860212C3.72934 1.62398 4.79211 2.41779 5.90137 3.1357C6.17249 3.31123 6.63106 3.3729 6.93936 3.27486C9.99136 2.29761 13.0232 2.27389 16.0737 3.28909C16.3773 3.39029 16.8405 3.30648 17.1163 3.12779C18.1388 2.46523 19.1179 1.73151 20.1048 1.0136C20.757 0.539208 21.4402 0.308338 22.1963 0.727382C22.9167 1.12587 22.9957 1.82322 22.9895 2.56643C22.96 6.28091 23.0886 10.0049 22.881 13.7099C22.6037 18.6135 18.3201 22.9193 13.5298 23.3763C10.907 23.6262 8.29649 23.6056 5.90292 22.271C2.18629 20.1995 0.155242 17.0132 0.0235566 12.6551C-0.0244698 11.0754 0.0158104 9.49253 0.0158104 7.91123ZM1.79434 2.42095C1.7587 2.75145 1.73392 2.87795 1.73392 3.00445C1.73392 6.32518 1.63322 9.64907 1.768 12.9635C1.89968 16.1751 3.45357 18.6467 6.12911 20.3671C8.10284 21.6353 10.2935 21.7887 12.543 21.7033C17.2759 21.5246 21.2017 17.4765 21.2559 12.6441C21.29 9.56052 21.2667 6.47699 21.2652 3.39345C21.2652 3.12779 21.2202 2.86056 21.1815 2.43677C19.9344 3.31597 18.8143 4.06076 17.7468 4.87671C17.1179 5.35743 16.54 5.41119 15.8118 5.12656C12.9489 4.01016 10.0564 3.99118 7.19498 5.12498C6.42811 5.42859 5.84095 5.34161 5.19492 4.84509C4.13059 4.02597 3.01204 3.28276 1.79434 2.42254V2.42095Z" fill="#6E6E6E"/>
<path d="M17.9137 12.531C17.9137 13.5731 17.2181 14.3479 16.2901 14.3432C15.3853 14.3384 14.6742 13.5335 14.668 12.5089C14.6618 11.53 15.4457 10.6508 16.3102 10.6682C17.2072 10.6856 17.9152 11.5063 17.9137 12.531Z" fill="#6E6E6E"/>
<path d="M8.16106 12.5093C8.16261 13.5419 7.44531 14.3642 6.55295 14.3516C5.62186 14.3373 4.94329 13.5783 4.9185 12.5267C4.89526 11.5368 5.63425 10.6908 6.53591 10.6703C7.41123 10.6497 8.15951 11.4957 8.16106 12.5093Z" fill="#6E6E6E"/>
<path d="M11.4275 16.6467C11.1827 16.5755 10.9147 16.5455 10.6963 16.4237C10.1959 16.1438 9.6397 15.8181 9.76364 15.1302C9.88293 14.4676 10.5181 14.4756 11.0108 14.4597C11.5933 14.4408 12.1959 14.4771 12.7599 14.6163C13.3222 14.7554 13.5252 15.2773 13.1255 15.7011C12.6932 16.1596 12.089 16.4459 11.5592 16.808C11.5158 16.7542 11.4709 16.7004 11.4275 16.6467Z" fill="#6E6E6E"/>
</g>
<defs>
<clipPath id="clip0_494_4468">
<rect width="23" height="23" fill="white" transform="translate(0 0.5)"/>
</clipPath>
</defs>
</svg>
