<svg width="1128" height="412" viewBox="0 0 1128 412" fill="none" xmlns="http://www.w3.org/2000/svg">
<g clip-path="url(#clip0_300_921)">
<path d="M49.0734 403.873C48.1627 405.905 46.9657 407.572 45.4566 408.823C43.9474 410.073 42.178 410.933 40.1745 411.428C38.1709 411.923 35.9852 412.105 33.5914 411.975C32.1863 411.923 30.6771 411.74 29.0899 411.48C27.5027 411.219 25.8634 410.881 24.1721 410.438C22.4808 409.995 20.7895 409.5 19.0721 408.927C17.3548 408.354 15.6895 407.728 14.0242 407.103C12.3589 406.452 10.7717 405.8 9.26254 405.123C7.90949 404.524 6.58246 403.82 5.25543 403.039C3.9284 402.231 2.80954 401.293 1.84679 400.199C0.884044 399.105 0.28558 397.828 0.0513986 396.395C-0.182783 394.962 0.103439 393.269 0.936084 391.341C2.21107 388.423 3.72024 386.599 5.41155 385.87C7.10286 385.14 9.00233 385.088 11.0839 385.688C12.0467 386.026 13.0355 386.365 13.9982 386.73C14.987 387.094 15.9757 387.459 16.9645 387.824C17.9533 388.189 18.942 388.527 19.9048 388.866C20.8935 389.205 21.8563 389.517 22.819 389.83C23.7818 390.143 24.7445 390.455 25.6813 390.768C27.2945 391.289 28.6215 391.549 29.6623 391.549C30.7031 391.549 31.4057 391.159 31.77 390.325C32.1082 389.57 31.9001 388.736 31.1455 387.824C30.3909 386.912 29.246 385.922 27.7368 384.802C26.8782 384.177 25.9415 383.525 24.9787 382.848C24.016 382.17 23.0532 381.467 22.0645 380.764C21.0757 380.06 20.139 379.383 19.2283 378.731C18.3176 378.054 17.4589 377.429 16.6783 376.856C14.5446 375.188 13.1135 373.339 12.3589 371.332C11.6043 369.326 11.7865 367.06 12.9054 364.559C13.5559 363.074 14.4145 361.953 15.4553 361.198C16.5222 360.442 17.7191 359.921 19.1242 359.661C20.5032 359.4 22.0124 359.348 23.5996 359.504C24.4063 359.609 25.2649 359.713 26.1496 359.843C27.0343 359.999 27.945 360.156 28.9078 360.338C29.8445 360.521 30.8072 360.729 31.744 360.937C32.7067 361.146 33.6434 361.328 34.5541 361.537C35.4648 361.745 36.3495 361.927 37.1822 362.11C39.1337 362.579 40.6689 362.839 41.7877 362.865C42.9066 362.865 43.6872 362.422 44.1035 361.458C44.4678 360.625 44.2336 359.765 43.427 358.905C42.5944 358.045 41.4755 357.134 40.0444 356.196C39.3679 355.701 38.5873 355.18 37.7546 354.633C36.922 354.112 36.0633 353.564 35.1786 353.017C34.2939 352.47 33.4092 351.923 32.5506 351.376C31.6659 350.829 30.8593 350.308 30.0787 349.813C29.2981 349.318 28.5955 348.875 27.945 348.484C27.0603 347.807 26.3318 346.973 25.7593 346.009C25.1609 345.045 24.8746 343.847 24.8746 342.44C24.8746 341.033 25.291 339.313 26.1756 337.333C26.8522 335.822 27.6588 334.65 28.6215 333.868C29.5843 333.087 30.6511 332.566 31.822 332.357C32.9929 332.149 34.2159 332.149 35.4909 332.409C36.7658 332.67 38.0669 333.087 39.3939 333.66C40.903 334.337 42.5423 335.145 44.2596 336.057C45.977 336.995 47.6943 338.011 49.4377 339.105C51.181 340.199 52.8463 341.372 54.4335 342.622C56.0468 343.873 57.5299 345.149 58.909 346.452C60.2881 347.755 61.433 349.083 62.3697 350.438C64.3472 353.043 65.5441 355.857 65.9605 358.879C66.3768 361.927 66.0125 364.767 64.8416 367.425C63.5666 370.29 62.0314 372.479 60.184 373.99C58.3626 375.475 56.0728 376.335 53.3147 376.543C52.6121 376.543 51.9096 376.491 51.155 376.439C50.4264 376.387 49.6458 376.309 48.8652 376.23C48.0846 376.126 47.278 376.022 46.4453 375.892C45.6127 375.761 44.754 375.605 43.8954 375.423C43.0367 375.24 42.152 375.032 41.2673 374.824C39.576 374.407 38.1189 374.146 36.922 374.016C35.699 373.912 34.9705 374.146 34.6842 374.771C34.398 375.423 34.6842 376.204 35.5429 377.064C36.4016 377.924 37.5725 378.888 39.0036 379.93C40.825 381.233 42.5163 382.535 44.0775 383.838C45.6387 385.14 46.9918 386.495 48.1367 387.876C49.3596 389.569 50.1922 391.263 50.6086 392.956C51.0249 394.65 51.103 396.395 50.8167 398.167C50.5305 399.939 49.9581 401.84 49.0734 403.873Z" fill="#2B2B2B"/>
<path d="M80.8697 341.422C79.985 342.933 78.9702 343.897 77.8514 344.34C76.7325 344.783 75.4055 344.861 73.9483 344.626C73.3238 344.522 72.5432 344.262 71.6065 343.897C70.6698 343.532 69.5769 343.063 68.354 342.49C67.131 341.917 65.83 341.266 64.4249 340.536C63.0459 339.807 61.5888 338.999 60.0796 338.113C58.4403 337.149 56.8271 336.081 55.2138 334.961C53.6006 333.814 52.0654 332.616 50.6082 331.365C49.1511 330.115 47.746 328.812 46.445 327.458C45.144 326.103 43.9731 324.722 42.9323 323.289C41.8915 321.856 41.0068 320.423 40.2522 318.99C39.2374 316.932 38.717 314.9 38.665 312.92C38.639 310.94 39.1594 309.038 40.2262 307.214C41.3451 305.339 42.8022 304.166 44.5976 303.723C46.419 303.254 48.3185 303.619 50.296 304.818C51.0246 305.234 51.7271 305.755 52.4817 306.355C53.2103 306.954 53.9388 307.553 54.6153 308.178C55.2919 308.804 55.9424 309.403 56.5669 310.002C57.1913 310.601 57.7638 311.096 58.2582 311.539C58.7526 311.982 59.1689 312.295 59.4811 312.477C59.9755 312.764 60.2877 312.764 60.4699 312.477C60.652 312.164 60.7301 311.643 60.652 310.966C60.574 310.289 60.5479 309.429 60.5219 308.413C60.5219 307.397 60.652 306.198 60.9903 304.844C61.3286 303.489 62.0051 301.952 63.0199 300.232C64.555 297.653 66.2724 295.751 68.1979 294.527C70.1234 293.328 72.1269 292.651 74.2866 292.521C76.4202 292.39 78.5799 292.651 80.7656 293.354C82.9513 294.058 85.0589 295.022 87.1406 296.246C88.1033 296.819 89.066 297.445 90.0288 298.148C90.9915 298.851 91.9022 299.555 92.7349 300.284C93.5935 301.014 94.3221 301.743 94.9986 302.473C95.6752 303.202 96.1956 303.88 96.5599 304.505C97.4185 305.938 97.8348 307.423 97.7568 309.012C97.6787 310.601 97.1063 312.269 96.0394 314.092C95.1808 315.551 94.2441 316.515 93.2032 317.01C92.1885 317.505 91.0696 317.662 89.8466 317.505C89.2742 317.375 88.5977 317.141 87.8691 316.828C87.1406 316.489 86.3339 316.098 85.4753 315.656C84.6166 315.187 83.7319 314.718 82.7952 314.223C81.8585 313.728 80.9217 313.233 79.985 312.764C79.0223 312.295 78.0855 311.904 77.2008 311.591C76.2901 311.305 75.4575 311.122 74.6509 311.122C73.8442 311.122 73.1157 311.279 72.4131 311.643C71.7366 312.008 71.1121 312.659 70.5917 313.545C70.0193 314.509 69.655 315.473 69.5249 316.411C69.3948 317.349 69.4468 318.235 69.655 319.095C69.8632 319.954 70.2014 320.736 70.6698 321.465C71.1381 322.195 71.6586 322.82 72.231 323.393C73.2458 324.331 74.1565 325.165 74.9631 325.92C75.7958 326.676 76.5243 327.379 77.1748 328.057C77.8253 328.734 78.4498 329.411 79.0483 330.089C79.6467 330.766 80.1932 331.47 80.7396 332.251C81.7023 333.658 82.1967 335.169 82.2488 336.758C82.2748 338.348 81.8064 339.937 80.8437 341.578L80.8697 341.422Z" fill="#2B2B2B"/>
<path d="M119.302 283.638C116.57 287.442 113.577 290.334 110.325 292.366C107.072 294.398 103.69 295.336 100.125 295.18C96.5862 295.023 92.9694 293.643 89.2746 290.985C86.2562 288.797 83.9665 286.374 82.4053 283.664C80.844 280.981 79.9594 278.141 79.7252 275.171C79.491 272.201 79.8553 269.231 80.792 266.235C81.7287 263.239 83.1859 260.373 85.1634 257.664C86.5164 255.788 87.9996 254.094 89.5868 252.557C91.2001 251.02 92.8914 249.796 94.6608 248.858C96.4301 247.946 98.2515 247.477 100.073 247.503C101.92 247.503 103.69 248.154 105.433 249.405C106.864 250.447 107.905 251.567 108.503 252.766C109.102 253.964 109.44 255.241 109.44 256.595C109.44 257.95 109.258 259.331 108.842 260.79C108.425 262.223 107.905 263.708 107.255 265.193C106.89 266.339 106.344 267.668 105.615 269.231C104.887 270.794 104.106 272.305 103.273 273.764C102.441 275.223 101.686 276.448 101.01 277.386C100.541 278.037 100.281 278.558 100.229 278.949C100.177 279.34 100.359 279.652 100.749 279.939C101.088 280.199 101.53 280.382 102.076 280.486C102.623 280.59 103.169 280.59 103.742 280.486C104.757 280.382 105.641 280.017 106.396 279.366C107.176 278.74 107.957 277.855 108.764 276.734C109.752 275.38 110.533 273.842 111.132 272.097C111.73 270.351 112.38 268.606 113.005 266.834C113.655 265.063 114.488 263.473 115.529 262.014C116.622 260.503 117.793 259.487 118.99 258.966C120.187 258.471 121.618 258.81 123.283 260.008C124.688 261.024 125.573 262.379 125.963 264.099C126.353 265.818 126.327 267.772 125.833 269.908C125.365 272.071 124.532 274.311 123.387 276.656C122.242 279.001 120.837 281.32 119.198 283.612L119.302 283.638ZM97.549 270.69C98.2776 269.7 98.876 268.606 99.3444 267.407C99.8127 266.235 99.9949 265.089 99.9168 263.994C99.8388 262.9 99.3184 262.04 98.4076 261.363C97.2888 260.555 96.222 260.425 95.1812 260.946C94.1403 261.467 93.1516 262.353 92.2148 263.656C91.6424 264.437 91.2261 265.323 90.9399 266.287C90.6536 267.251 90.5235 268.215 90.5496 269.179C90.5756 270.143 90.7837 271.029 91.122 271.862C91.4863 272.67 92.0067 273.347 92.6832 273.842C93.1776 274.207 93.672 274.311 94.1403 274.181C94.6087 274.051 95.1291 273.686 95.6495 273.061C96.1959 272.462 96.7944 271.654 97.523 270.69H97.549Z" fill="#2B2B2B"/>
<path d="M141.161 252.4C140.302 253.39 139.418 254.172 138.507 254.719C137.596 255.266 136.634 255.605 135.645 255.787C134.656 255.969 133.641 255.995 132.626 255.891C131.43 255.761 130.181 255.474 128.88 255.031C127.579 254.588 126.278 254.041 124.977 253.39C123.676 252.739 122.427 252.009 121.178 251.176C119.929 250.342 118.784 249.482 117.717 248.544C114.282 245.6 112.018 242.37 110.9 238.826C109.781 235.283 109.729 231.636 110.743 227.884C111.758 224.133 113.788 220.485 116.806 216.942C118.263 215.249 119.799 213.712 121.464 212.331C123.129 210.95 124.794 209.856 126.486 209.074C128.177 208.266 129.79 207.876 131.351 207.85C132.913 207.85 134.266 208.345 135.489 209.361C136.66 210.351 137.362 211.367 137.596 212.409C137.857 213.425 137.778 214.441 137.414 215.379C137.05 216.317 136.503 217.203 135.827 218.01C134.786 219.235 133.667 220.251 132.47 221.058C131.273 221.866 130.076 222.986 128.88 224.393C127.5 226.008 126.876 227.676 127.032 229.395C127.188 231.115 128.203 232.782 130.076 234.397C130.779 234.997 131.534 235.57 132.288 236.091C133.043 236.612 133.771 237.107 134.5 237.55C135.228 237.993 135.931 238.436 136.634 238.853C137.336 239.269 137.961 239.66 138.559 240.051C139.158 240.442 139.678 240.806 140.12 241.197C142.176 242.969 143.321 244.767 143.529 246.564C143.737 248.388 142.956 250.342 141.187 252.4H141.161Z" fill="#2B2B2B"/>
<path d="M179.409 213.425C176.104 216.708 172.669 219.079 169.131 220.564C165.592 222.023 162.079 222.388 158.618 221.658C155.132 220.929 151.801 218.949 148.627 215.718C145.999 213.061 144.151 210.273 143.058 207.381C141.966 204.463 141.549 201.545 141.809 198.575C142.07 195.605 142.902 192.739 144.333 189.926C145.765 187.138 147.664 184.559 150.058 182.188C151.697 180.573 153.44 179.114 155.262 177.863C157.109 176.613 158.957 175.675 160.882 175.05C162.782 174.424 164.629 174.294 166.451 174.607C168.272 174.919 169.911 175.857 171.42 177.368C172.669 178.619 173.502 179.895 173.918 181.198C174.335 182.501 174.439 183.803 174.205 185.132C173.996 186.461 173.554 187.815 172.93 189.17C172.279 190.525 171.524 191.88 170.64 193.234C170.093 194.303 169.339 195.527 168.35 196.934C167.361 198.341 166.346 199.696 165.28 201.024C164.213 202.327 163.276 203.395 162.469 204.203C161.897 204.776 161.559 205.245 161.455 205.61C161.351 205.974 161.455 206.339 161.793 206.678C162.105 206.99 162.495 207.225 163.016 207.433C163.536 207.616 164.083 207.72 164.655 207.694C165.67 207.746 166.607 207.537 167.465 207.042C168.324 206.547 169.261 205.818 170.223 204.854C171.42 203.682 172.435 202.275 173.32 200.66C174.205 199.044 175.115 197.429 176.026 195.788C176.937 194.146 178.056 192.713 179.33 191.437C180.658 190.108 181.959 189.3 183.234 189.014C184.509 188.727 185.862 189.3 187.293 190.733C188.49 191.958 189.166 193.443 189.27 195.214C189.374 196.986 189.01 198.888 188.177 200.946C187.345 203.004 186.174 205.089 184.665 207.225C183.155 209.361 181.386 211.419 179.383 213.399L179.409 213.425ZM160.076 197.09C160.96 196.231 161.715 195.241 162.391 194.146C163.042 193.052 163.432 191.958 163.51 190.864C163.614 189.769 163.25 188.832 162.443 188.024C161.481 187.06 160.44 186.721 159.321 187.06C158.202 187.399 157.083 188.128 155.964 189.248C155.288 189.926 154.715 190.733 154.273 191.645C153.831 192.557 153.545 193.495 153.414 194.459C153.284 195.423 153.336 196.335 153.545 197.194C153.753 198.054 154.169 198.81 154.767 199.409C155.21 199.852 155.678 200.034 156.147 199.982C156.641 199.93 157.187 199.643 157.838 199.122C158.462 198.601 159.217 197.924 160.076 197.09Z" fill="#2B2B2B"/>
<path d="M235.871 161.268C233.842 162.805 232.072 163.508 230.563 163.404C229.054 163.3 227.519 162.57 225.906 161.242C225.541 160.877 225.151 160.486 224.709 160.043C224.292 159.6 223.85 159.157 223.408 158.662C222.965 158.167 222.497 157.646 222.029 157.099C221.56 156.552 221.092 156.005 220.623 155.484C219.348 154.025 218.152 152.774 217.033 151.758C215.914 150.742 214.691 150.299 213.39 150.43C211.881 150.56 210.45 150.742 209.097 150.977C207.743 151.211 206.416 151.368 205.089 151.446C203.502 151.602 201.993 151.55 200.588 151.316C199.183 151.081 197.856 150.69 196.607 150.143C195.384 149.596 194.239 148.893 193.172 148.059C192.131 147.225 191.195 146.235 190.362 145.141C189.243 143.63 188.619 142.093 188.515 140.53C188.41 138.966 188.749 137.455 189.477 135.996C190.232 134.564 191.299 133.287 192.73 132.245C193.875 131.385 195.072 130.89 196.321 130.734C197.57 130.577 199.079 130.864 200.77 131.594C201.733 132.036 202.774 132.479 203.84 132.948C204.907 133.391 206 133.782 207.067 134.121C208.212 134.537 209.357 134.85 210.45 135.033C211.568 135.215 212.635 135.241 213.65 135.033C214.665 134.85 215.576 134.459 216.382 133.86C217.215 133.235 217.839 132.401 218.23 131.333C218.62 130.291 218.906 129.118 219.01 127.842C219.192 126.253 219.244 124.611 219.166 122.918C219.062 121.224 219.01 119.739 218.958 118.463C219.01 116.743 219.27 115.284 219.713 114.112C220.155 112.94 220.884 111.976 221.898 111.22C223.304 110.178 224.813 109.579 226.478 109.449C228.143 109.318 229.73 109.579 231.24 110.23C232.749 110.881 234.024 111.898 235.039 113.252C235.559 113.93 236.027 114.737 236.444 115.649C236.86 116.561 237.224 117.551 237.484 118.619C237.771 119.687 237.927 120.808 238.005 121.98C238.083 123.152 238.005 124.351 237.823 125.575C237.511 127.686 237.042 129.561 236.444 131.125C235.845 132.714 235.169 134.329 234.362 135.996C233.842 137.065 233.451 137.924 233.217 138.576C232.983 139.253 232.853 139.852 232.827 140.399C232.827 140.946 232.879 141.572 233.009 142.275C233.165 142.666 233.373 143.161 233.66 143.786C233.946 144.412 234.284 145.115 234.7 145.87C235.117 146.652 235.559 147.46 236.027 148.346C236.522 149.231 237.016 150.117 237.511 151.003C238.577 152.879 238.968 154.728 238.707 156.526C238.447 158.324 237.432 159.861 235.741 161.137L235.871 161.268Z" fill="#2B2B2B"/>
<path d="M282.787 131.385C279.925 133.13 276.958 134.485 273.94 135.475C270.896 136.465 267.929 136.934 265.041 136.882C262.127 136.83 259.421 136.1 256.923 134.72C254.399 133.339 252.239 131.124 250.418 128.076C248.414 124.741 247.217 121.433 246.853 118.176C246.489 114.893 246.801 111.767 247.842 108.771C248.857 105.775 250.47 102.987 252.682 100.46C254.867 97.933 257.547 95.6924 260.696 93.7906C263.74 91.9669 266.811 90.6121 269.907 89.7524C273.029 88.8926 276.074 88.606 279.04 88.8926C282.006 89.1792 284.791 90.1692 287.367 91.8106C289.943 93.4779 292.206 95.9008 294.132 99.1054C295.693 101.685 296.552 104.446 296.734 107.416C296.916 110.386 296.474 113.356 295.433 116.326C294.392 119.296 292.805 122.084 290.697 124.663C288.563 127.268 285.961 129.509 282.839 131.385H282.787ZM274.278 118.906C275.71 118.046 276.802 117.082 277.557 116.04C278.312 114.998 278.806 113.903 279.014 112.783C279.222 111.663 279.222 110.543 279.014 109.5C278.806 108.432 278.416 107.468 277.869 106.556C277.167 105.41 276.36 104.55 275.397 104.029C274.434 103.482 273.42 103.196 272.353 103.17C271.286 103.144 270.193 103.274 269.1 103.612C268.008 103.951 266.967 104.394 265.978 104.993C264.625 105.801 263.532 106.843 262.699 108.068C261.867 109.292 261.45 110.673 261.398 112.158C261.346 113.643 261.815 115.18 262.751 116.743C263.558 118.098 264.573 119.088 265.77 119.739C266.967 120.391 268.294 120.625 269.725 120.495C271.156 120.364 272.639 119.843 274.2 118.906H274.278Z" fill="#2B2B2B"/>
<path d="M332.329 105.253C328.504 107.076 324.887 108.197 321.479 108.64C318.07 109.082 314.921 108.822 312.033 107.884C309.119 106.92 306.491 105.279 304.123 102.934C301.755 100.589 299.674 97.541 297.878 93.7634C297.41 92.7734 296.994 91.7833 296.629 90.7933C296.291 89.8033 296.005 88.8133 295.823 87.8494C295.64 86.8854 295.51 85.9736 295.484 85.0878C295.38 82.8733 295.797 80.9454 296.733 79.3301C297.67 77.6887 299.101 76.4122 301.079 75.4743C303.004 74.5624 304.617 74.1716 305.866 74.3279C307.115 74.4842 308.13 74.9532 308.885 75.7087C309.639 76.4643 310.238 77.2719 310.68 78.1316C310.992 78.6788 311.305 79.278 311.617 79.8511C311.903 80.4503 312.215 81.0235 312.528 81.5706C312.84 82.1438 313.152 82.6909 313.438 83.212C313.724 83.733 314.011 84.228 314.271 84.6709C315.546 86.7812 316.795 88.4486 318.044 89.7252C319.293 91.0018 320.594 91.7833 321.947 92.096C323.3 92.4086 324.757 92.1741 326.344 91.4447C327.749 90.7673 328.816 89.9075 329.519 88.8133C330.221 87.7452 330.586 86.3904 330.638 84.8012C330.664 83.212 330.403 81.3361 329.831 79.1998C329.675 78.4182 329.467 77.6627 329.233 76.9332C328.998 76.2037 328.738 75.4743 328.478 74.7708C328.218 74.0674 327.984 73.3379 327.749 72.6084C327.515 71.879 327.333 71.1495 327.177 70.3939C326.917 68.5181 327.125 66.8247 327.775 65.2876C328.452 63.7505 329.857 62.4739 332.043 61.4318C333.942 60.546 335.633 60.3636 337.117 60.9107C338.6 61.4578 339.979 62.4999 341.254 64.0631C341.722 64.6884 342.191 65.3657 342.633 66.1213C343.075 66.8508 343.492 67.6063 343.908 68.3879C344.324 69.1695 344.741 69.9771 345.131 70.7847C345.521 71.5924 345.911 72.4521 346.25 73.2858C348.409 78.1577 349.216 82.5867 348.696 86.5728C348.175 90.5589 346.51 94.1281 343.674 97.2284C340.864 100.329 337.065 103.012 332.329 105.279V105.253Z" fill="#2B2B2B"/>
<path d="M372.4 86.4165C371.177 86.8854 370.006 87.1199 368.939 87.146C367.872 87.146 366.858 87.0157 365.921 86.7031C364.984 86.3904 364.074 85.9215 363.215 85.3223C362.252 84.6188 361.289 83.7591 360.379 82.743C359.468 81.727 358.583 80.6067 357.777 79.4083C356.97 78.2098 356.215 76.9332 355.539 75.6045C354.862 74.2758 354.29 72.9472 353.796 71.6185C352.234 67.3718 351.818 63.4379 352.573 59.8165C353.327 56.1691 355.045 52.9646 357.751 50.1769C360.457 47.3893 363.995 45.2009 368.393 43.5856C370.474 42.804 372.582 42.2308 374.69 41.84C376.797 41.4492 378.801 41.319 380.648 41.4492C382.522 41.5795 384.135 42.0224 385.488 42.7519C386.841 43.5074 387.804 44.6016 388.35 46.0867C388.871 47.5196 389.001 48.744 388.715 49.7601C388.428 50.7762 387.908 51.6099 387.101 52.2612C386.321 52.9125 385.41 53.4075 384.447 53.7722C382.938 54.3194 381.455 54.6841 380.024 54.8144C378.593 54.9446 377.006 55.3354 375.262 55.9867C373.285 56.7162 371.932 57.8886 371.229 59.4518C370.527 61.041 370.605 62.9689 371.463 65.2876C371.802 66.1734 372.166 67.0332 372.556 67.8408C372.972 68.6745 373.363 69.4561 373.779 70.2116C374.195 70.9671 374.612 71.6706 375.002 72.374C375.392 73.0774 375.757 73.7287 376.095 74.354C376.433 74.9793 376.693 75.5524 376.901 76.1256C377.838 78.6788 377.968 80.7891 377.24 82.4825C376.537 84.1759 374.898 85.5046 372.374 86.4425L372.4 86.4165Z" fill="#2B2B2B"/>
<path d="M441.589 64.0383C440.132 64.3769 438.675 64.3509 437.244 63.9862C435.813 63.6214 434.434 62.9701 433.107 61.9801C431.78 60.9901 430.531 59.7656 429.36 58.2545C428.943 57.6032 428.501 56.8477 428.033 55.9619C427.564 55.0761 427.122 54.1382 426.68 53.0961C426.237 52.08 425.795 50.9858 425.379 49.8655C424.962 48.7452 424.572 47.625 424.182 46.4786C423.791 45.3323 423.453 44.212 423.141 43.1439C422.829 42.0496 422.568 41.0336 422.36 40.0696C421.189 34.8591 421.007 30.5343 421.814 27.0953C422.62 23.6824 424.468 20.9208 427.408 18.8626C430.348 16.8044 434.382 15.1891 439.56 14.0428C442.994 13.2873 446.325 12.8444 449.577 12.7662C452.83 12.6881 455.822 13.0528 458.554 13.8344C461.286 14.616 463.602 15.9447 465.502 17.7944C467.401 19.6442 468.702 22.1192 469.379 25.1934C469.899 27.5382 469.925 29.6745 469.457 31.6545C468.988 33.6346 468.104 35.3801 466.777 36.9433C465.45 38.4804 463.784 39.8351 461.755 40.9554C459.725 42.0757 457.409 42.9875 454.833 43.6389C453.168 44.0297 451.607 44.2902 450.176 44.3944C448.745 44.4986 447.47 44.681 446.325 44.9155C445.466 45.0978 444.998 45.5407 444.92 46.192C444.842 46.8434 444.92 47.7031 445.154 48.7452C445.232 49.0839 445.31 49.4747 445.414 49.8916C445.518 50.3084 445.622 50.7513 445.752 51.1942C445.882 51.6371 446.013 52.106 446.143 52.575C446.273 53.044 446.403 53.4869 446.507 53.8776C446.611 54.2945 446.689 54.6592 446.767 54.9979C447.314 57.4729 447.183 59.453 446.351 60.964C445.544 62.4751 443.905 63.4911 441.511 64.0383H441.589ZM444.581 35.9533C445.544 35.7449 446.507 35.4583 447.444 35.1196C448.38 34.7809 449.239 34.364 450.046 33.8951C450.826 33.4261 451.503 32.9051 452.049 32.3059C452.596 31.7067 453.012 31.0553 453.246 30.3519C453.48 29.6485 453.532 28.919 453.35 28.1114C453.168 27.2516 452.83 26.5221 452.362 25.975C451.893 25.4279 451.347 24.985 450.722 24.6724C450.098 24.3597 449.421 24.1513 448.719 24.0471C448.016 23.9429 447.314 23.9168 446.611 23.969C445.908 24.0211 445.31 24.0992 444.738 24.2295C443.749 24.464 442.864 24.7245 442.136 25.0371C441.407 25.3498 440.783 25.7405 440.34 26.1834C439.872 26.6263 439.56 27.1474 439.403 27.7466C439.247 28.3458 439.247 29.0232 439.403 29.8048C439.612 30.6906 439.82 31.4982 440.054 32.2277C440.288 32.9572 440.574 33.5564 440.861 34.1035C441.147 34.6246 441.485 35.0414 441.875 35.3541C442.266 35.6667 442.656 35.8751 443.098 35.9793C443.541 36.0835 444.035 36.0835 444.555 35.9793L444.581 35.9533Z" fill="#2B2B2B"/>
<path d="M501.901 55.4141C497.269 56.0133 493.106 55.8309 489.411 54.867C485.716 53.903 482.698 52.0532 480.382 49.3698C478.067 46.6864 476.583 43.0911 476.011 38.5839C475.517 34.8844 475.725 31.5496 476.635 28.5536C477.52 25.5835 478.977 22.9783 480.981 20.7898C482.984 18.6014 485.404 16.8037 488.214 15.449C491.025 14.0942 494.121 13.1824 497.452 12.7655C499.741 12.4789 502.005 12.3747 504.217 12.4789C506.428 12.5832 508.484 12.974 510.384 13.6513C512.257 14.3026 513.844 15.3187 515.093 16.6735C516.342 18.0282 517.097 19.7738 517.383 21.9101C517.617 23.6817 517.513 25.1927 517.045 26.4693C516.602 27.7459 515.874 28.8401 514.911 29.778C513.922 30.716 512.777 31.5236 511.45 32.201C510.123 32.8783 508.692 33.5036 507.157 34.0507C506.09 34.5718 504.737 35.0928 503.098 35.6139C501.459 36.1349 499.819 36.6039 498.18 37.0207C496.541 37.4376 495.162 37.6981 494.017 37.8544C493.21 37.9586 492.664 38.115 492.352 38.3494C492.039 38.5839 491.909 38.9487 491.987 39.4176C492.039 39.8345 492.221 40.2774 492.508 40.7463C492.794 41.2153 493.184 41.606 493.653 41.9447C494.407 42.5961 495.292 42.9868 496.281 43.1171C497.269 43.2474 498.44 43.2213 499.793 43.039C501.459 42.8305 503.124 42.3355 504.789 41.58C506.481 40.8245 508.172 40.095 509.889 39.3394C511.607 38.61 513.35 38.115 515.145 37.8805C517.019 37.646 518.528 37.7763 519.725 38.3234C520.922 38.8705 521.65 40.1471 521.91 42.1532C522.145 43.8466 521.754 45.4358 520.766 46.9208C519.777 48.3798 518.346 49.6824 516.446 50.8288C514.547 51.949 512.361 52.913 509.863 53.6946C507.365 54.4762 504.711 55.0493 501.927 55.4141H501.901ZM496.385 30.6899C497.608 30.5336 498.805 30.2209 500.002 29.752C501.198 29.283 502.135 28.6317 502.864 27.8241C503.592 27.0164 503.879 26.0525 503.748 24.9322C503.566 23.5775 502.942 22.6917 501.849 22.2748C500.756 21.858 499.429 21.7538 497.842 21.9622C496.879 22.0925 495.942 22.379 495.058 22.848C494.147 23.2909 493.366 23.8901 492.69 24.5675C492.013 25.2449 491.493 26.0004 491.129 26.8341C490.764 27.6417 490.66 28.4754 490.764 29.3352C490.842 29.9604 491.103 30.3773 491.519 30.6378C491.935 30.8983 492.56 31.0025 493.366 30.9765C494.173 30.9765 495.188 30.8723 496.385 30.716V30.6899Z" fill="#2B2B2B"/>
<path d="M552.797 48.7701C550.508 48.8743 548.348 48.6659 546.292 48.1449C544.237 47.6238 542.519 46.6859 541.166 45.3312C539.813 43.9764 539.033 42.1006 538.851 39.6777C538.799 39.0524 538.747 38.375 538.694 37.6456C538.642 36.9161 538.59 36.1606 538.538 35.379C538.486 34.5974 538.434 33.8158 538.408 33.0082C538.382 32.2005 538.33 31.3929 538.304 30.6113C538.278 29.8297 538.226 29.0481 538.2 28.3447C538.148 27.1723 537.81 26.4168 537.159 26.1041C536.535 25.7915 535.702 25.5831 534.713 25.531C534.167 25.5049 533.595 25.4789 532.944 25.4789C532.32 25.4789 531.669 25.4528 531.019 25.4007C530.368 25.3747 529.666 25.3226 528.989 25.2705C527.584 25.1662 526.465 24.6452 525.58 23.6812C524.722 22.7173 524.253 21.3104 524.149 19.4867C524.097 18.2362 524.279 17.2462 524.748 16.5688C525.19 15.8654 525.815 15.3443 526.621 14.9796C527.428 14.6148 528.286 14.3022 529.223 14.0417C530.394 13.8072 531.435 13.5727 532.346 13.3643C533.256 13.1559 534.089 12.9474 534.791 12.739C535.546 12.5306 536.145 12.2701 536.587 11.8793C537.029 11.5145 537.289 10.8893 537.367 9.97742C537.446 9.35215 537.498 8.72688 537.576 8.10161C537.628 7.47635 537.68 6.87713 537.758 6.27791C537.836 5.6787 537.914 5.15764 538.018 4.68869C538.486 3.09946 539.163 1.95314 540.022 1.24971C540.906 0.546283 542.311 0.129438 544.237 0.051279C545.772 -0.0268796 546.995 0.103385 547.906 0.442072C548.816 0.754706 549.545 1.30182 550.065 2.0313C550.586 2.76078 551.054 3.77684 551.444 5.02738C551.574 5.6787 551.705 6.22581 551.809 6.69476C551.913 7.16371 552.017 7.63266 552.095 8.04951C552.173 8.46635 552.251 8.8832 552.329 9.30005C552.407 9.71689 552.485 10.1858 552.589 10.6808C552.719 11.4885 553.084 12.0877 553.682 12.4785C554.255 12.8693 554.957 13.1038 555.764 13.208C556.466 13.2861 557.143 13.3643 557.793 13.4164C558.444 13.4685 559.094 13.5467 559.719 13.5988C560.343 13.6509 560.968 13.703 561.566 13.7551C562.945 13.8854 564.194 14.3022 565.365 15.0056C566.536 15.7091 567.135 16.9856 567.213 18.7833C567.291 20.3725 566.9 21.6752 566.016 22.6912C565.157 23.7073 564.012 24.3326 562.633 24.5149C561.436 24.6452 560.265 24.7754 559.146 24.8797C558.027 24.9839 557.117 25.0881 556.414 25.2183C555.816 25.2965 555.295 25.5049 554.827 25.8697C554.359 26.2344 554.098 26.9118 554.046 27.9539C554.046 28.5271 554.098 29.1002 554.098 29.6994C554.098 30.2987 554.098 30.8718 554.15 31.471C554.203 32.0703 554.229 32.6434 554.255 33.1905C554.255 33.7637 554.307 34.3108 554.359 34.8319C554.411 35.379 554.463 35.874 554.541 36.3169C554.671 37.3069 554.983 38.0103 555.451 38.4532C555.92 38.8961 556.752 39.0785 557.897 39.0264C558.73 38.9743 559.433 38.7919 559.979 38.4272C560.551 38.0624 561.072 37.7237 561.592 37.385C562.113 37.0463 562.685 36.864 563.336 36.8379C564.402 36.7858 565.183 37.0463 565.677 37.5674C566.172 38.1145 566.432 38.9222 566.484 40.0424C566.536 41.293 566.172 42.4653 565.365 43.5075C564.559 44.5496 563.466 45.4614 562.139 46.217C560.786 46.9725 559.302 47.5717 557.663 48.0407C556.024 48.4836 554.411 48.7441 552.797 48.8222V48.7701Z" fill="#2B2B2B"/>
<path d="M610.616 49.4226C607.468 49.2142 605.178 48.0939 603.773 46.0618C602.368 44.0297 601.77 41.3983 601.978 38.1417C602.056 36.9172 602.16 35.5364 602.264 34.0254C602.368 32.5143 602.498 30.9251 602.654 29.2577C602.81 27.5903 602.967 25.8708 603.149 24.0992C603.331 22.3276 603.539 20.5821 603.773 18.8365C603.981 17.091 604.242 15.3976 604.502 13.7562C604.762 12.1149 605.048 10.6038 605.36 9.19697C606.141 6.14879 607.234 3.9343 608.639 2.52744C610.07 1.12059 612.23 0.52137 615.118 0.729793C617.46 0.88611 619.177 1.7198 620.27 3.20482C621.363 4.68983 621.987 6.53958 622.195 8.72802C622.247 9.69198 622.274 10.8383 622.3 12.1409C622.326 13.4436 622.3 14.8765 622.3 16.3876C622.274 17.9247 622.221 19.4879 622.169 21.051C622.117 22.6403 622.065 24.2034 621.987 25.7405C621.909 27.2777 621.831 28.7366 621.753 30.1174C621.675 31.4982 621.597 32.7227 621.493 33.7648C621.233 37.6728 620.738 40.8251 620.036 43.1699C619.333 45.5147 618.24 47.2081 616.783 48.1981C615.326 49.1881 613.271 49.605 610.642 49.4226H610.616Z" fill="#2B2B2B"/>
<path d="M644.413 53.4856C642.332 53.225 640.38 52.8864 638.585 52.4956C636.763 52.1048 635.124 51.6879 633.641 51.1929C632.158 50.6979 630.857 50.1508 629.764 49.5516C628.307 48.77 627.162 47.9103 626.277 46.9984C625.393 46.0605 625.054 44.836 625.263 43.2989C625.497 41.5534 626.147 40.2507 627.266 39.3649C628.385 38.4791 629.894 38.1665 631.82 38.401C632.887 38.5312 633.979 38.8178 635.15 39.2347C636.295 39.6515 637.544 40.0944 638.923 40.5373C640.276 40.9802 641.811 41.3189 643.529 41.5273C644.752 41.6836 645.871 41.7618 646.885 41.7357C647.9 41.7357 648.733 41.5534 649.357 41.2147C649.982 40.902 650.372 40.381 650.45 39.6515C650.554 38.9481 650.398 38.3749 650.034 37.8799C649.67 37.411 648.915 36.916 647.744 36.3949C646.599 35.8999 644.908 35.3007 642.644 34.6494C639.678 33.7375 637.18 32.6172 635.15 31.3406C633.121 30.064 631.638 28.553 630.701 26.8335C629.764 25.088 629.426 23.1079 629.712 20.8674C629.972 18.8092 630.805 17.1418 632.158 15.8652C633.537 14.5886 635.28 13.6247 637.44 12.9734C639.6 12.322 641.968 11.9573 644.596 11.8531C647.198 11.7489 649.878 11.8791 652.61 12.2439C654.457 12.4784 656.305 12.8431 658.178 13.286C660.052 13.755 661.769 14.3281 663.304 15.0055C664.839 15.6829 666.062 16.4905 666.947 17.3763C667.832 18.2621 668.196 19.2521 668.066 20.3463C667.884 21.7532 667.415 22.8474 666.661 23.6029C665.906 24.3585 664.995 24.8535 663.955 25.088C662.914 25.3224 661.847 25.3745 660.78 25.2182C659.349 25.0358 657.918 24.6972 656.539 24.2543C655.16 23.7853 653.911 23.4987 652.818 23.3424C651.933 23.2382 651.153 23.2121 650.424 23.2643C649.722 23.3424 649.149 23.4987 648.707 23.7853C648.264 24.0719 648.03 24.4887 647.952 25.0358C647.848 25.8695 648.368 26.599 649.487 27.1982C650.632 27.8235 652.506 28.553 655.134 29.3606C657.684 30.1422 659.895 31.1583 661.769 32.3567C663.642 33.5551 665.047 35.0401 665.958 36.8117C666.895 38.5833 667.181 40.6676 666.869 43.0905C666.583 45.305 665.828 47.1547 664.579 48.6397C663.33 50.1248 661.717 51.2971 659.713 52.1308C657.71 52.9645 655.42 53.4856 652.818 53.694C650.216 53.9024 647.406 53.7982 644.361 53.4074L644.413 53.4856Z" fill="#2B2B2B"/>
<path d="M719.953 71.1509C716.232 70.1088 712.927 68.6498 710.013 66.7219C707.125 64.794 704.783 62.5013 702.988 59.844C701.192 57.1866 700.021 54.2426 699.527 51.012C699.006 47.7815 699.267 44.3165 700.281 40.643C701.27 37.0738 702.701 33.9995 704.575 31.3942C706.448 28.7889 708.634 26.6787 711.158 25.0373C713.682 23.396 716.44 22.1976 719.432 21.442C722.425 20.6865 725.547 20.3478 728.773 20.452C732 20.5562 735.226 21.0512 738.479 21.937C742.434 23.0313 745.999 24.5944 749.147 26.6526C752.296 28.6847 754.898 31.1337 756.979 33.9474C759.035 36.7611 760.414 39.8614 761.09 43.2222C761.767 46.583 761.585 50.1262 760.544 53.8518C759.399 57.9682 757.5 61.4071 754.82 64.1948C752.14 66.9824 748.913 69.0927 745.166 70.4996C741.419 71.9325 737.386 72.7141 733.067 72.8183C728.747 72.9225 724.402 72.3754 720.005 71.177L719.953 71.1509ZM728.123 54.3468C730.933 55.1284 733.327 55.2847 735.278 54.8418C737.23 54.3989 738.791 53.5392 739.962 52.2626C741.133 50.986 741.94 49.5531 742.382 47.9639C742.798 46.4267 742.928 44.9678 742.72 43.587C742.538 42.2062 742.096 40.9296 741.367 39.7572C740.639 38.5848 739.728 37.5688 738.583 36.7351C737.438 35.9014 736.137 35.2501 734.654 34.8593C733.249 34.4685 731.844 34.3122 730.439 34.3903C729.034 34.4685 727.707 34.755 726.484 35.2501C725.261 35.7711 724.194 36.5006 723.283 37.4645C722.373 38.4285 721.748 39.6009 721.358 40.9556C720.941 42.4667 720.811 43.9257 720.915 45.3586C721.045 46.7915 721.384 48.0941 722.008 49.3186C722.607 50.517 723.413 51.5852 724.454 52.471C725.495 53.3568 726.718 53.9821 728.097 54.3729L728.123 54.3468Z" fill="#2B2B2B"/>
<path d="M779.667 89.413C775.712 87.8498 772.433 85.974 769.779 83.7855C767.125 81.5971 765.173 79.1221 763.872 76.3344C762.597 73.5468 761.999 70.4986 762.077 67.1638C762.181 63.8291 762.988 60.2077 764.497 56.3258C764.913 55.3098 765.356 54.3198 765.824 53.3819C766.292 52.444 766.839 51.5842 767.411 50.7766C767.984 49.9689 768.582 49.2655 769.207 48.6402C770.742 47.051 772.433 46.061 774.281 45.6181C776.102 45.1752 778.027 45.3576 780.057 46.1652C782.061 46.9468 783.414 47.8586 784.168 48.9008C784.897 49.9168 785.261 50.985 785.209 52.0532C785.183 53.1213 785.001 54.1113 784.663 55.0232C784.48 55.6485 784.272 56.2737 784.038 56.8729C783.804 57.4982 783.596 58.0974 783.388 58.7227C783.179 59.348 782.997 59.9211 782.815 60.5203C782.633 61.0935 782.477 61.6406 782.321 62.1356C781.644 64.5064 781.28 66.5646 781.202 68.3362C781.124 70.1078 781.462 71.5928 782.139 72.7912C782.841 73.9897 783.986 74.9015 785.599 75.5528C787.056 76.126 788.409 76.3084 789.684 76.0739C790.959 75.8655 792.182 75.2142 793.379 74.146C794.576 73.0778 795.747 71.6189 796.918 69.7431C797.386 69.0917 797.803 68.4144 798.167 67.737C798.531 67.0596 798.896 66.3822 799.234 65.7049C799.572 65.0275 799.936 64.3501 800.301 63.6988C800.665 63.0475 801.081 62.3961 801.55 61.7709C802.747 60.3119 804.126 59.2959 805.687 58.7227C807.274 58.1756 809.174 58.3319 811.411 59.2177C813.363 59.9993 814.638 61.1196 815.262 62.5785C815.887 64.0375 816.043 65.783 815.809 67.763C815.679 68.5446 815.496 69.3523 815.262 70.1599C815.028 70.9675 814.768 71.8012 814.482 72.6349C814.195 73.4686 813.883 74.3284 813.571 75.1881C813.259 76.0478 812.894 76.8815 812.504 77.7152C810.423 82.6132 807.742 86.2345 804.49 88.5793C801.211 90.924 797.464 92.1225 793.275 92.1746C789.086 92.2267 784.532 91.2888 779.641 89.3609L779.667 89.413Z" fill="#2B2B2B"/>
<path d="M820.756 105.905C819.585 105.305 818.622 104.628 817.868 103.872C817.139 103.117 816.541 102.257 816.124 101.345C815.708 100.433 815.448 99.4434 815.292 98.4274C815.135 97.229 815.109 95.9524 815.24 94.5976C815.344 93.2168 815.578 91.836 815.89 90.4292C816.202 89.0223 816.619 87.6155 817.139 86.2086C817.659 84.8017 818.232 83.473 818.856 82.1965C820.886 78.1583 823.488 75.1882 826.662 73.2343C829.837 71.3064 833.35 70.3685 837.227 70.4727C841.104 70.5508 845.137 71.6711 849.3 73.7553C851.303 74.7453 853.151 75.8917 854.868 77.1683C856.612 78.4448 858.043 79.7996 859.24 81.2586C860.411 82.7175 861.191 84.1765 861.581 85.6875C861.972 87.1986 861.79 88.6576 861.087 90.0644C860.411 91.4192 859.578 92.3571 858.641 92.8521C857.704 93.3471 856.742 93.5295 855.701 93.3731C854.686 93.2429 853.723 92.9302 852.787 92.4613C851.356 91.7318 850.081 90.8981 849.014 89.9342C847.947 88.9702 846.568 88.0844 844.929 87.2247C843.029 86.2607 841.286 86.0783 839.646 86.6254C838.007 87.1726 836.654 88.5794 835.535 90.7678C835.119 91.6015 834.729 92.4613 834.416 93.321C834.078 94.1808 833.792 95.0145 833.532 95.8221C833.272 96.6297 833.011 97.4374 832.777 98.1929C832.543 98.9484 832.309 99.6779 832.075 100.355C831.84 101.033 831.606 101.606 831.32 102.153C830.097 104.576 828.64 106.113 826.923 106.738C825.205 107.364 823.124 107.077 820.73 105.852L820.756 105.905Z" fill="#2B2B2B"/>
<path d="M884.243 141.338C882.994 140.478 882.031 139.41 881.329 138.133C880.626 136.857 880.158 135.372 879.976 133.73C879.794 132.089 879.846 130.317 880.158 128.442C880.34 127.686 880.6 126.852 880.939 125.914C881.277 124.977 881.641 124.013 882.11 122.97C882.552 121.928 883.046 120.886 883.593 119.818C884.139 118.75 884.685 117.682 885.258 116.64C885.83 115.597 886.403 114.581 887.001 113.617C887.574 112.654 888.146 111.768 888.719 110.934C891.737 106.531 894.781 103.457 897.826 101.711C900.87 99.9658 904.149 99.4708 907.635 100.2C911.122 100.93 915.077 102.806 919.448 105.828C922.363 107.808 924.939 109.97 927.202 112.315C929.466 114.634 931.262 117.083 932.537 119.636C933.812 122.189 934.436 124.768 934.384 127.425C934.332 130.083 933.395 132.714 931.6 135.32C930.247 137.3 928.686 138.785 926.942 139.775C925.173 140.791 923.273 141.338 921.244 141.416C919.214 141.494 917.107 141.181 914.895 140.478C912.683 139.748 910.471 138.68 908.234 137.247C906.803 136.283 905.554 135.32 904.513 134.356C903.446 133.366 902.457 132.558 901.494 131.907C900.766 131.412 900.141 131.359 899.621 131.724C899.101 132.115 898.528 132.74 897.93 133.626C897.722 133.913 897.513 134.225 897.279 134.59C897.045 134.955 896.785 135.32 896.551 135.736C896.317 136.153 896.056 136.544 895.796 136.961C895.536 137.378 895.302 137.768 895.094 138.107C894.859 138.446 894.651 138.785 894.469 139.071C893.038 141.155 891.503 142.406 889.838 142.823C888.172 143.24 886.325 142.771 884.295 141.364L884.243 141.338ZM906.803 124.377C907.609 124.95 908.468 125.445 909.379 125.888C910.263 126.331 911.174 126.696 912.033 126.957C912.917 127.217 913.75 127.347 914.557 127.347C915.363 127.347 916.118 127.191 916.794 126.904C917.471 126.592 918.043 126.123 918.486 125.445C918.98 124.716 919.266 123.987 919.37 123.257C919.474 122.528 919.396 121.824 919.188 121.147C918.98 120.469 918.668 119.844 918.278 119.245C917.861 118.646 917.419 118.125 916.925 117.656C916.43 117.187 915.936 116.77 915.467 116.457C914.635 115.884 913.828 115.415 913.1 115.102C912.371 114.764 911.668 114.581 911.018 114.555C910.367 114.529 909.795 114.634 909.249 114.92C908.702 115.207 908.208 115.676 907.765 116.353C907.245 117.109 906.803 117.812 906.464 118.489C906.1 119.167 905.84 119.766 905.658 120.339C905.476 120.912 905.398 121.459 905.424 121.928C905.424 122.423 905.58 122.866 905.814 123.257C906.048 123.648 906.386 124.013 906.829 124.325L906.803 124.377Z" fill="#2B2B2B"/>
<path d="M925.382 172.131C924.368 171.298 923.587 170.412 923.041 169.5C922.494 168.588 922.104 167.65 921.896 166.66C921.687 165.67 921.635 164.654 921.74 163.638C921.844 162.44 922.104 161.189 922.546 159.886C922.962 158.584 923.483 157.255 924.107 155.952C924.732 154.65 925.434 153.347 926.241 152.097C927.048 150.846 927.906 149.674 928.791 148.579C931.653 145.088 934.854 142.77 938.366 141.571C941.879 140.373 945.522 140.269 949.295 141.207C953.042 142.144 956.737 144.098 960.353 147.068C962.071 148.475 963.632 150.012 965.037 151.628C966.442 153.243 967.561 154.91 968.394 156.578C969.226 158.245 969.669 159.86 969.695 161.424C969.747 162.987 969.252 164.368 968.264 165.592C967.301 166.764 966.286 167.494 965.271 167.78C964.257 168.067 963.268 168.015 962.305 167.65C961.342 167.285 960.458 166.79 959.651 166.113C958.402 165.097 957.361 163.977 956.528 162.804C955.696 161.632 954.551 160.46 953.12 159.261C951.481 157.906 949.815 157.333 948.098 157.516C946.381 157.698 944.741 158.74 943.18 160.668C942.582 161.398 942.035 162.127 941.515 162.909C940.994 163.664 940.526 164.42 940.11 165.175C939.667 165.905 939.251 166.634 938.861 167.338C938.471 168.041 938.08 168.692 937.716 169.292C937.352 169.891 936.961 170.412 936.597 170.881C934.88 172.965 933.11 174.137 931.289 174.398C929.468 174.632 927.516 173.903 925.434 172.183L925.382 172.131Z" fill="#2B2B2B"/>
<path d="M956.553 199.018C954.862 197.429 953.847 195.918 953.483 194.433C953.119 192.974 953.301 191.489 954.029 189.978C954.758 188.493 955.903 186.904 957.49 185.21C958.062 184.611 958.687 183.96 959.416 183.256C960.144 182.579 960.873 181.875 961.627 181.172C962.382 180.469 963.162 179.765 963.943 179.088C964.724 178.41 965.504 177.759 966.285 177.16C967.039 176.561 967.768 176.014 968.445 175.519C969.121 175.024 969.746 174.659 970.292 174.372C972.582 173.304 974.845 172.939 977.031 173.304C979.217 173.669 981.377 174.841 983.484 176.821C985.436 178.671 986.216 180.703 985.826 182.97C985.436 185.236 984.109 187.581 981.845 189.978C981.194 190.681 980.44 191.437 979.607 192.245C978.775 193.052 977.89 193.86 976.953 194.667C976.016 195.475 975.08 196.257 974.117 197.038C973.154 197.82 972.217 198.523 971.281 199.149C970.344 199.774 969.485 200.347 968.653 200.79C967.82 201.259 967.092 201.571 966.441 201.78C964.646 202.275 962.954 202.301 961.341 201.832C959.728 201.389 958.141 200.425 956.605 198.966L956.553 199.018ZM985.592 173.122C983.146 170.829 981.767 168.771 981.481 166.999C981.168 165.228 981.533 163.795 982.521 162.753C983.796 161.398 985.358 160.721 987.205 160.695C989.052 160.668 990.952 161.085 992.877 161.971C994.803 162.831 996.494 163.977 997.951 165.358C999.044 166.4 999.903 167.52 1000.5 168.719C1001.1 169.917 1001.33 171.168 1001.2 172.392C1001.07 173.643 1000.48 174.841 999.382 175.988C998.16 177.29 996.754 177.968 995.219 178.02C993.658 178.046 992.071 177.629 990.432 176.717C988.792 175.805 987.179 174.607 985.618 173.148L985.592 173.122Z" fill="#2B2B2B"/>
<path d="M987.83 231.687C985.566 229.212 983.641 226.581 982.08 223.793C980.519 221.006 979.478 218.192 978.957 215.326C978.463 212.46 978.619 209.647 979.504 206.911C980.362 204.176 982.106 201.622 984.734 199.226C987.596 196.594 990.614 194.771 993.737 193.781C996.859 192.791 1000.01 192.478 1003.16 192.895C1006.3 193.312 1009.32 194.354 1012.24 196.021C1015.15 197.688 1017.86 199.877 1020.33 202.586C1022.72 205.192 1024.65 207.953 1026.08 210.845C1027.54 213.737 1028.42 216.655 1028.71 219.625C1028.99 222.595 1028.58 225.513 1027.46 228.379C1026.34 231.245 1024.41 233.928 1021.66 236.455C1019.44 238.487 1016.89 239.868 1014.01 240.624C1011.14 241.379 1008.15 241.535 1005.03 241.093C1001.93 240.65 998.889 239.66 995.922 238.07C992.956 236.481 990.25 234.371 987.804 231.687H987.83ZM998.394 220.902C999.513 222.126 1000.66 223.012 1001.83 223.559C1003 224.106 1004.17 224.367 1005.32 224.367C1006.46 224.367 1007.53 224.132 1008.54 223.715C1009.53 223.298 1010.42 222.725 1011.2 222.022C1012.19 221.11 1012.86 220.146 1013.2 219.104C1013.54 218.062 1013.64 217.02 1013.46 215.952C1013.28 214.883 1012.94 213.841 1012.39 212.851C1011.85 211.835 1011.2 210.923 1010.42 210.064C1009.35 208.891 1008.13 208.031 1006.75 207.458C1005.37 206.885 1003.96 206.729 1002.48 206.989C1001 207.25 999.591 207.979 998.238 209.23C997.067 210.298 996.287 211.496 995.896 212.799C995.506 214.102 995.506 215.457 995.922 216.837C996.339 218.218 997.145 219.573 998.368 220.902H998.394Z" fill="#2B2B2B"/>
<path d="M1016.94 264.8C1016.14 263.758 1015.59 262.716 1015.25 261.7C1014.91 260.684 1014.76 259.668 1014.81 258.678C1014.84 257.688 1015.02 256.672 1015.33 255.682C1015.72 254.536 1016.27 253.389 1016.97 252.217C1017.67 251.044 1018.48 249.872 1019.39 248.752C1020.3 247.632 1021.29 246.537 1022.36 245.495C1023.42 244.453 1024.52 243.515 1025.66 242.655C1029.25 239.92 1032.89 238.383 1036.59 238.018C1040.28 237.679 1043.85 238.383 1047.31 240.154C1050.74 241.926 1053.89 244.688 1056.73 248.413C1058.08 250.185 1059.25 252.034 1060.24 253.936C1061.23 255.838 1061.96 257.714 1062.38 259.538C1062.79 261.361 1062.84 263.029 1062.53 264.54C1062.22 266.051 1061.44 267.301 1060.16 268.265C1058.94 269.203 1057.82 269.672 1056.76 269.698C1055.69 269.724 1054.75 269.464 1053.89 268.891C1053.03 268.317 1052.31 267.614 1051.66 266.78C1050.67 265.504 1049.91 264.175 1049.37 262.846C1048.82 261.518 1047.99 260.111 1046.87 258.626C1045.59 256.932 1044.08 255.994 1042.37 255.76C1040.65 255.552 1038.8 256.177 1036.85 257.688C1036.1 258.261 1035.39 258.86 1034.72 259.486C1034.04 260.111 1033.41 260.736 1032.82 261.361C1032.22 261.987 1031.65 262.586 1031.1 263.159C1030.55 263.758 1030.03 264.279 1029.54 264.774C1029.04 265.269 1028.55 265.712 1028.08 266.051C1025.92 267.692 1023.94 268.422 1022.12 268.239C1020.3 268.057 1018.56 266.885 1016.92 264.722L1016.94 264.8Z" fill="#2B2B2B"/>
<path d="M1041.12 298.122C1039.84 296.195 1039.19 294.475 1039.17 292.964C1039.17 291.453 1039.66 290.046 1040.7 288.743C1041.74 287.467 1043.23 286.164 1045.15 284.888C1045.86 284.419 1046.61 283.95 1047.47 283.429C1048.33 282.934 1049.21 282.413 1050.1 281.892C1050.98 281.37 1051.89 280.875 1052.83 280.407C1053.74 279.938 1054.65 279.469 1055.53 279.078C1056.42 278.661 1057.25 278.296 1058.03 277.984C1058.81 277.671 1059.49 277.436 1060.11 277.28C1062.61 276.759 1064.88 276.915 1066.91 277.775C1068.96 278.635 1070.78 280.276 1072.37 282.673C1073.85 284.914 1074.14 287.102 1073.23 289.212C1072.32 291.323 1070.5 293.303 1067.74 295.126C1066.93 295.673 1066.02 296.221 1065.03 296.82C1064.02 297.419 1062.98 298.018 1061.91 298.591C1060.82 299.165 1059.72 299.712 1058.61 300.233C1057.49 300.754 1056.42 301.223 1055.35 301.64C1054.31 302.056 1053.32 302.369 1052.41 302.63C1051.5 302.89 1050.72 303.046 1050.02 303.073C1048.17 303.151 1046.51 302.76 1045.02 301.952C1043.54 301.145 1042.24 299.842 1041.07 298.07L1041.12 298.122ZM1075.31 279.573C1073.46 276.785 1072.58 274.466 1072.71 272.669C1072.81 270.871 1073.49 269.569 1074.69 268.761C1076.22 267.745 1077.91 267.432 1079.71 267.823C1081.53 268.214 1083.25 269.074 1084.94 270.35C1086.6 271.653 1088.01 273.138 1089.13 274.805C1089.96 276.056 1090.53 277.332 1090.82 278.661C1091.13 279.964 1091.08 281.214 1090.66 282.413C1090.25 283.611 1089.39 284.627 1088.06 285.513C1086.55 286.503 1085.04 286.842 1083.53 286.529C1082.02 286.216 1080.57 285.409 1079.16 284.158C1077.76 282.908 1076.48 281.37 1075.28 279.573H1075.31Z" fill="#2B2B2B"/>
<path d="M1065.21 336.317C1064.07 334.337 1063.26 332.305 1062.79 330.22C1062.32 328.136 1062.38 326.182 1062.95 324.384C1063.52 322.561 1064.85 321.024 1066.9 319.747C1067.42 319.408 1068 319.07 1068.65 318.679C1069.27 318.288 1069.92 317.897 1070.6 317.507C1071.28 317.116 1071.95 316.699 1072.65 316.308C1073.36 315.917 1074.03 315.5 1074.74 315.11C1075.44 314.719 1076.09 314.328 1076.71 313.989C1077.73 313.39 1078.25 312.739 1078.25 312.035C1078.25 311.332 1078.04 310.524 1077.65 309.586C1077.42 309.091 1077.18 308.57 1076.9 307.997C1076.61 307.424 1076.35 306.851 1076.06 306.252C1075.8 305.652 1075.52 305.027 1075.23 304.376C1074.68 303.073 1074.63 301.823 1075.1 300.624C1075.57 299.4 1076.58 298.358 1078.17 297.446C1079.26 296.821 1080.23 296.534 1081.03 296.638C1081.84 296.716 1082.62 297.029 1083.32 297.576C1084.03 298.123 1084.7 298.748 1085.35 299.452C1086.11 300.39 1086.78 301.197 1087.41 301.927C1088.01 302.63 1088.58 303.282 1089.07 303.829C1089.59 304.402 1090.11 304.793 1090.66 305.027C1091.21 305.262 1091.88 305.21 1092.69 304.845C1093.29 304.636 1093.86 304.402 1094.43 304.167C1095.01 303.933 1095.58 303.698 1096.12 303.49C1096.67 303.282 1097.19 303.125 1097.66 302.995C1099.27 302.682 1100.6 302.761 1101.64 303.23C1102.68 303.698 1103.67 304.767 1104.63 306.434C1105.39 307.763 1105.83 308.909 1105.96 309.873C1106.09 310.837 1105.96 311.723 1105.54 312.53C1105.13 313.338 1104.45 314.198 1103.51 315.11C1103.02 315.526 1102.58 315.891 1102.19 316.204C1101.8 316.516 1101.46 316.803 1101.12 317.09C1100.78 317.376 1100.44 317.637 1100.11 317.871C1099.77 318.132 1099.4 318.418 1099.01 318.731C1098.36 319.226 1098 319.825 1097.92 320.529C1097.84 321.232 1097.92 321.962 1098.23 322.717C1098.49 323.368 1098.73 324.02 1098.96 324.619C1099.19 325.218 1099.43 325.817 1099.69 326.417C1099.92 327.016 1100.16 327.589 1100.39 328.136C1100.91 329.413 1101.12 330.741 1101.02 332.07C1100.91 333.425 1100.08 334.545 1098.52 335.431C1097.14 336.212 1095.81 336.473 1094.51 336.16C1093.21 335.848 1092.14 335.118 1091.34 333.998C1090.66 332.982 1090.04 332.018 1089.41 331.054C1088.81 330.09 1088.29 329.334 1087.88 328.787C1087.54 328.292 1087.1 327.928 1086.58 327.667C1086.05 327.407 1085.3 327.485 1084.36 327.902C1083.87 328.188 1083.37 328.449 1082.85 328.735C1082.33 328.996 1081.81 329.282 1081.32 329.595C1080.82 329.908 1080.33 330.194 1079.84 330.481C1079.34 330.767 1078.87 331.054 1078.43 331.341C1077.99 331.627 1077.57 331.914 1077.21 332.174C1076.38 332.747 1075.88 333.321 1075.72 333.946C1075.54 334.571 1075.75 335.379 1076.32 336.395C1076.74 337.124 1077.23 337.645 1077.81 337.984C1078.38 338.323 1078.93 338.635 1079.47 338.948C1079.99 339.235 1080.43 339.678 1080.75 340.251C1081.27 341.189 1081.42 341.996 1081.16 342.674C1080.9 343.351 1080.3 343.976 1079.34 344.523C1078.25 345.149 1077.05 345.331 1075.75 345.097C1074.45 344.862 1073.15 344.289 1071.85 343.455C1070.55 342.595 1069.35 341.553 1068.18 340.303C1067.03 339.052 1066.05 337.724 1065.26 336.343L1065.21 336.317Z" fill="#2B2B2B"/>
<path d="M1064.93 369.925C1064.07 368.075 1063.88 366.33 1064.35 364.74C1064.82 363.151 1065.78 362.005 1067.22 361.353C1068.7 360.676 1070.18 360.546 1071.61 360.963C1073.07 361.38 1074.48 362.317 1075.88 363.75C1076.87 364.584 1077.99 365.47 1079.18 366.408C1080.38 367.346 1081.58 368.179 1082.78 368.935C1083.97 369.69 1085.07 370.238 1086.08 370.576C1087.09 370.915 1087.93 370.941 1088.58 370.654C1089.12 370.42 1089.51 369.742 1089.78 368.674C1090.04 367.606 1090.11 365.887 1089.98 363.516C1089.91 361.614 1089.98 359.738 1090.24 357.862C1090.48 355.987 1090.87 354.189 1091.39 352.443C1091.91 350.698 1092.59 349.109 1093.42 347.624C1094.25 346.139 1095.21 344.836 1096.31 343.716C1097.4 342.595 1098.65 341.71 1100.05 341.058C1101.46 340.407 1102.92 340.146 1104.37 340.277C1105.83 340.407 1107.18 340.902 1108.41 341.762C1109.63 342.621 1110.59 343.794 1111.27 345.305C1112.26 347.467 1112.7 349.499 1112.54 351.375C1112.39 353.251 1111.63 355.179 1110.3 357.159C1108.8 358.983 1107.39 360.65 1106.09 362.187C1104.79 363.724 1103.75 365.183 1103.02 366.59C1102.6 367.398 1102.29 368.205 1102.11 369.013C1101.93 369.821 1101.95 370.446 1102.16 370.889C1102.47 371.566 1103.05 372.087 1103.9 372.4C1104.74 372.713 1105.62 372.869 1106.51 372.843C1108.33 372.921 1110.36 372.895 1112.62 372.739C1114.88 372.608 1116.99 372.556 1118.89 372.608C1120.56 372.817 1122.09 373.312 1123.5 374.119C1124.9 374.927 1126 376.178 1126.8 377.923C1128.08 380.711 1128.28 382.951 1127.43 384.697C1126.57 386.416 1125.03 387.797 1122.85 388.813C1121.52 389.438 1119.91 389.881 1118.06 390.168C1116.21 390.455 1114.21 390.585 1112.07 390.585C1109.94 390.585 1107.75 390.507 1105.57 390.298C1103.38 390.09 1101.22 389.829 1099.17 389.438C1097.11 389.074 1095.24 388.683 1093.52 388.24C1090.45 387.432 1087.46 386.468 1084.49 385.348C1081.55 384.228 1078.77 382.899 1076.19 381.414C1073.62 379.903 1071.35 378.21 1069.4 376.282C1067.45 374.354 1065.94 372.218 1064.85 369.847L1064.93 369.925Z" fill="#2B2B2B"/>
<path d="M58.748 226.033C50.2143 232.02 43.0773 241.954 47.102 250.555C51.1267 259.156 62.2274 256.701 66.3701 251.959C70.5129 247.217 72.4807 244.711 65.2606 243.77C58.0404 242.828 44.5938 253.202 46.7651 261.927C48.9364 270.651 50.728 273.821 54.7808 276.554C58.8335 279.286 64.824 281.161 70.4394 277.488C76.0548 273.815 78.9676 268.319 69.8963 267.504C60.8249 266.689 50.7665 276.402 49.9233 282.899C49.0801 289.395 53.0138 298.721 53.0138 298.721" stroke="#5E5E5E" stroke-width="3" stroke-linecap="round" stroke-linejoin="round"/>
<path d="M880 88L890.729 94.4139" stroke="#5E5E5E" stroke-width="2" stroke-linecap="round" stroke-linejoin="round"/>
<path d="M893 76L894.602 82.0413L896.203 88.0825" stroke="#5E5E5E" stroke-width="2" stroke-linecap="round" stroke-linejoin="round"/>
<path d="M907.93 76L904.998 88.1514" stroke="#5E5E5E" stroke-width="2" stroke-linecap="round" stroke-linejoin="round"/>
</g>
<defs>
<clipPath id="clip0_300_921">
<rect width="1128" height="412" fill="white"/>
</clipPath>
</defs>
</svg>
