<svg width="17" height="19" viewBox="0 0 17 19" fill="none" xmlns="http://www.w3.org/2000/svg">
<path d="M15 4L14.4629 12.5061C14.3256 14.6794 14.2571 15.766 13.7007 16.5473C13.4255 16.9335 13.0714 17.2595 12.6606 17.5045C11.8298 18 10.7178 18 8.49367 18C6.2667 18 5.15319 18 4.32184 17.5036C3.91083 17.2582 3.55653 16.9316 3.28152 16.5447C2.7253 15.7622 2.65819 14.674 2.524 12.4977L2 4" stroke="#5E5E5E" stroke-width="1.5" stroke-linecap="round"/>
<path d="M1 4H16M11.8797 4L11.3109 2.79291C10.933 1.99108 10.744 1.59016 10.4181 1.34012C10.3458 1.28466 10.2693 1.23532 10.1892 1.1926C9.82825 1 9.39508 1 8.52875 1C7.64067 1 7.19667 1 6.82973 1.20067C6.74842 1.24515 6.67082 1.29649 6.59774 1.35415C6.26803 1.61431 6.08386 2.0299 5.71551 2.86108L5.21077 4" stroke="#5E5E5E" stroke-width="1.5" stroke-linecap="round"/>
<path d="M6 13V8" stroke="#5E5E5E" stroke-width="1.5" stroke-linecap="round"/>
<path d="M11 13V8" stroke="#5E5E5E" stroke-width="1.5" stroke-linecap="round"/>
</svg>
