<svg width="17" height="17" viewBox="0 0 17 17" fill="none" xmlns="http://www.w3.org/2000/svg">
<path d="M11.9504 2.67741L13.1365 1.4913C13.7916 0.836233 14.8536 0.836233 15.5087 1.4913C16.1638 2.14637 16.1638 3.20844 15.5087 3.86351L14.3226 5.04962M11.9504 2.67741L7.52171 7.1061C6.63725 7.99058 6.19499 8.43278 5.89385 8.9717C5.59271 9.51061 5.28972 10.7831 5 12C6.21685 11.7103 7.48939 11.4073 8.02831 11.1061C8.56722 10.805 9.00942 10.3628 9.89391 9.47829L14.3226 5.04962M11.9504 2.67741L14.3226 5.04962" stroke="#5E5E5E" stroke-width="1.5" stroke-linecap="round" stroke-linejoin="round"/>
<path d="M16 8.5C16 12.0355 16 13.8033 14.9017 14.9017C13.8033 16 12.0355 16 8.5 16C4.96447 16 3.1967 16 2.09835 14.9017C1 13.8033 1 12.0355 1 8.5C1 4.96447 1 3.1967 2.09835 2.09835C3.1967 1 4.96447 1 8.5 1" stroke="#5E5E5E" stroke-width="1.5" stroke-linecap="round"/>
</svg>
