<svg width="42" height="42" viewBox="0 0 42 42" fill="none" xmlns="http://www.w3.org/2000/svg">
<circle cx="21" cy="21" r="21" fill="white"/>
<mask id="mask0_337_1105" style="mask-type:luminance" maskUnits="userSpaceOnUse" x="8" y="7" width="26" height="27">
<path d="M33.8091 7.66992H8.03516V33.9656H33.8091V7.66992Z" fill="white"/>
</mask>
<g mask="url(#mask0_337_1105)">
<path d="M33.8082 21.1208C33.8082 20.2271 33.7357 19.3285 33.581 18.4492H21.1797V23.5122H28.2814C27.9866 25.1451 27.0398 26.5897 25.6533 27.5075V30.7926H29.8902C32.3782 28.5027 33.8082 25.121 33.8082 21.1208Z" fill="#4285F4"/>
<path d="M21.1789 33.9663C24.7249 33.9663 27.7154 32.802 29.8941 30.7922L25.6573 27.5071C24.4785 28.3091 22.9568 28.7632 21.1837 28.7632C17.7537 28.7632 14.8454 26.449 13.8018 23.3379H9.42969V26.7244C11.6617 31.1644 16.2077 33.9663 21.1789 33.9663Z" fill="#34A853"/>
<path d="M13.7972 23.3386C13.2464 21.7057 13.2464 19.9375 13.7972 18.3046V14.918H9.42985C7.56505 18.6331 7.56505 23.0101 9.42985 26.7251L13.7972 23.3386Z" fill="#FBBC04"/>
<path d="M21.1789 12.8739C23.0534 12.8449 24.865 13.5502 26.2226 14.845L29.9763 11.0912C27.5995 8.85926 24.4447 7.63216 21.1789 7.67081C16.2077 7.67081 11.6617 10.4728 9.42969 14.9175L13.797 18.3041C14.8357 15.188 17.7488 12.8739 21.1789 12.8739Z" fill="#EA4335"/>
</g>
</svg>
