<svg width="25" height="24" viewBox="0 0 25 24" fill="none" xmlns="http://www.w3.org/2000/svg">
<path d="M1.51562 11.9829C1.51562 6.8055 1.51562 4.21681 3.12403 2.6084C4.73244 1 7.32112 1 12.4985 1C17.6758 1 20.2645 1 21.873 2.6084C23.4814 4.21681 23.4814 6.8055 23.4814 11.9829C23.4814 17.1602 23.4814 19.7489 21.873 21.3574C20.2645 22.9657 17.6758 22.9657 12.4985 22.9657C7.32112 22.9657 4.73244 22.9657 3.12403 21.3574C1.51562 19.7489 1.51562 17.1602 1.51562 11.9829Z" stroke="#9B460A" stroke-width="2" stroke-linejoin="round"/>
<path d="M17.7017 11.9837C17.7017 14.8569 15.3725 17.1861 12.4993 17.1861C9.62608 17.1861 7.29688 14.8569 7.29688 11.9837C7.29688 9.11045 9.62608 6.78125 12.4993 6.78125C15.3725 6.78125 17.7017 9.11045 17.7017 11.9837Z" stroke="#9B460A" stroke-width="2"/>
<path d="M18.8653 5.625H18.8555" stroke="#9B460A" stroke-width="2" stroke-linecap="round" stroke-linejoin="round"/>
</svg>
