<svg width="1146" height="412" viewBox="0 0 1146 412" fill="none" xmlns="http://www.w3.org/2000/svg">
<circle cx="1064.5" cy="247.5" r="53.5" fill="#EA8B48"/>
<circle cx="1076.5" cy="241.5" r="53" stroke="black"/>
<path d="M1115 103.5C1127.44 99.6818 1126.59 99.1214 1131.5 87C1133.21 96.2738 1135 100 1144.5 103.5C1135.86 108.268 1133.2 125.133 1131.5 135.5C1132.66 123.061 1130.44 106.184 1115 103.5Z" stroke="#5E5E5E" stroke-width="3" stroke-linejoin="round"/>
<g clip-path="url(#clip0_609_95)">
<path d="M48.5946 403.873C47.6927 405.905 46.5075 407.572 45.013 408.823C43.5186 410.073 41.7665 410.933 39.7824 411.428C37.7984 411.923 35.6341 412.105 33.2635 411.975C31.8722 411.923 30.3777 411.74 28.806 411.48C27.2342 411.219 25.6109 410.881 23.9361 410.438C22.2613 409.995 20.5865 409.5 18.8859 408.927C17.1853 408.354 15.5362 407.728 13.8872 407.103C12.2381 406.452 10.6664 405.8 9.17194 405.123C7.83209 404.524 6.518 403.82 5.20391 403.039C3.88983 402.231 2.78187 401.293 1.82851 400.199C0.875156 399.105 0.282528 397.828 0.0506307 396.395C-0.181267 394.962 0.102164 393.269 0.926689 391.341C2.18924 388.423 3.6837 386.599 5.35851 385.87C7.03333 385.14 8.91428 385.088 10.9756 385.688C11.9289 386.026 12.9081 386.365 13.8614 386.73C14.8406 387.094 15.8197 387.459 16.7988 387.824C17.7779 388.189 18.757 388.527 19.7104 388.866C20.6895 389.205 21.6429 389.517 22.5962 389.83C23.5496 390.143 24.503 390.455 25.4306 390.768C27.0281 391.289 28.3422 391.549 29.3728 391.549C30.4035 391.549 31.0992 391.159 31.4599 390.325C31.7949 389.57 31.5887 388.736 30.8415 387.824C30.0943 386.912 28.9605 385.922 27.4661 384.802C26.6158 384.177 25.6882 383.525 24.7349 382.848C23.7815 382.17 22.8281 381.467 21.849 380.764C20.8699 380.06 19.9423 379.383 19.0405 378.731C18.1387 378.054 17.2884 377.429 16.5154 376.856C14.4025 375.188 12.9854 373.339 12.2381 371.332C11.4909 369.326 11.6713 367.06 12.7792 364.559C13.4234 363.074 14.2737 361.953 15.3043 361.198C16.3608 360.442 17.546 359.921 18.9374 359.661C20.303 359.4 21.7975 359.348 23.3692 359.504C24.168 359.609 25.0183 359.713 25.8943 359.843C26.7704 359.999 27.6722 360.156 28.6256 360.338C29.5532 360.521 30.5065 360.729 31.4341 360.937C32.3875 361.146 33.3151 361.328 34.2169 361.537C35.1187 361.745 35.9948 361.927 36.8193 362.11C38.7518 362.579 40.272 362.839 41.38 362.865C42.4879 362.865 43.2609 362.422 43.6732 361.458C44.0339 360.625 43.802 359.765 43.0032 358.905C42.1787 358.045 41.0708 357.134 39.6536 356.196C38.9837 355.701 38.2107 355.18 37.3862 354.633C36.5616 354.112 35.7114 353.564 34.8353 353.017C33.9592 352.47 33.0832 351.923 32.2329 351.376C31.3568 350.829 30.5581 350.308 29.7851 349.813C29.0121 349.318 28.3164 348.875 27.6722 348.484C26.7962 347.807 26.0747 346.973 25.5078 346.009C24.9152 345.045 24.6318 343.847 24.6318 342.44C24.6318 341.033 25.0441 339.313 25.9201 337.333C26.59 335.822 27.3888 334.65 28.3422 333.868C29.2955 333.087 30.3519 332.566 31.5114 332.357C32.6709 332.149 33.8819 332.149 35.1445 332.409C36.407 332.67 37.6954 333.087 39.0095 333.66C40.5039 334.337 42.1272 335.145 43.8278 336.057C45.5284 336.995 47.2289 338.011 48.9553 339.105C50.6816 340.199 52.3307 341.372 53.9024 342.622C55.5 343.873 56.9686 345.149 58.3343 346.452C59.6999 347.755 60.8336 349.083 61.7612 350.438C63.7194 353.043 64.9047 355.857 65.317 358.879C65.7292 361.927 65.3685 364.767 64.209 367.425C62.9465 370.29 61.4262 372.479 59.5968 373.99C57.7932 375.475 55.5257 376.335 52.7945 376.543C52.0988 376.543 51.4031 376.491 50.6559 376.439C49.9344 376.387 49.1614 376.309 48.3884 376.23C47.6154 376.126 46.8167 376.022 45.9921 375.892C45.1676 375.761 44.3173 375.605 43.467 375.423C42.6168 375.24 41.7407 375.032 40.8646 374.824C39.1898 374.407 37.7469 374.146 36.5616 374.016C35.3506 373.912 34.6292 374.146 34.3457 374.771C34.0623 375.423 34.3457 376.204 35.196 377.064C36.0463 377.924 37.2058 378.888 38.623 379.93C40.4266 381.233 42.1014 382.535 43.6474 383.838C45.1934 385.141 46.5332 386.495 47.667 387.876C48.878 389.569 49.7025 391.263 50.1148 392.956C50.527 394.65 50.6043 396.395 50.3209 398.167C50.0375 399.939 49.4706 401.84 48.5946 403.873Z" fill="#2B2B2B"/>
<path d="M80.0812 341.422C79.2051 342.933 78.2002 343.897 77.0923 344.34C75.9843 344.783 74.6702 344.861 73.2273 344.626C72.6089 344.522 71.8359 344.262 70.9083 343.897C69.9807 343.532 68.8985 343.063 67.6875 342.49C66.4765 341.917 65.1882 341.266 63.7968 340.536C62.4312 339.807 60.9882 338.999 59.4938 338.113C57.8705 337.149 56.273 336.081 54.6755 334.961C53.078 333.814 51.5577 332.616 50.1148 331.365C48.6719 330.115 47.2805 328.812 45.9922 327.458C44.7039 326.103 43.5444 324.722 42.5137 323.289C41.4831 321.856 40.607 320.423 39.8598 318.99C38.8549 316.932 38.3396 314.9 38.288 312.92C38.2623 310.94 38.7776 309.038 39.834 307.214C40.942 305.339 42.3849 304.166 44.1628 303.723C45.9664 303.254 47.8474 303.619 49.8056 304.818C50.5271 305.234 51.2228 305.755 51.97 306.355C52.6915 306.954 53.4129 307.553 54.0828 308.178C54.7528 308.804 55.3969 309.403 56.0153 310.002C56.6337 310.601 57.2006 311.096 57.6901 311.539C58.1797 311.982 58.592 312.295 58.9012 312.477C59.3907 312.764 59.6999 312.764 59.8803 312.477C60.0606 312.164 60.1379 311.643 60.0606 310.966C59.9833 310.289 59.9576 309.429 59.9318 308.413C59.9318 307.397 60.0607 306.198 60.3956 304.844C60.7306 303.489 61.4005 301.952 62.4054 300.232C63.9256 297.653 65.6262 295.751 67.5329 294.527C69.4396 293.328 71.4236 292.651 73.5623 292.521C75.6751 292.39 77.8137 292.651 79.9781 293.354C82.1425 294.058 84.2296 295.022 86.2909 296.246C87.2442 296.819 88.1976 297.445 89.1509 298.148C90.1043 298.851 91.0061 299.555 91.8306 300.284C92.6809 301.014 93.4024 301.743 94.0723 302.473C94.7422 303.202 95.2576 303.88 95.6183 304.505C96.4686 305.938 96.8809 307.423 96.8036 309.012C96.7263 310.601 96.1594 312.269 95.103 314.092C94.2527 315.551 93.3251 316.515 92.2944 317.01C91.2895 317.505 90.1816 317.662 88.9706 317.505C88.4037 317.375 87.7338 317.141 87.0123 316.828C86.2909 316.489 85.4921 316.098 84.6418 315.656C83.7915 315.187 82.9155 314.718 81.9879 314.223C81.0603 313.728 80.1327 313.233 79.2051 312.764C78.2517 312.295 77.3241 311.904 76.4481 311.591C75.5463 311.305 74.7217 311.122 73.923 311.122C73.1242 311.122 72.4028 311.279 71.7071 311.643C71.0371 312.008 70.4187 312.659 69.9034 313.545C69.3366 314.509 68.9758 315.473 68.847 316.411C68.7182 317.349 68.7697 318.235 68.9758 319.095C69.182 319.954 69.5169 320.736 69.9807 321.465C70.4445 322.195 70.9598 322.82 71.5267 323.393C72.5316 324.331 73.4334 325.165 74.2322 325.92C75.0567 326.676 75.7782 327.379 76.4223 328.057C77.0665 328.734 77.6849 329.411 78.2775 330.089C78.8701 330.766 79.4112 331.47 79.9523 332.251C80.9057 333.658 81.3952 335.169 81.4468 336.758C81.4725 338.348 81.0087 339.937 80.0554 341.578L80.0812 341.422Z" fill="#2B2B2B"/>
<path d="M118.138 283.638C115.432 287.442 112.469 290.334 109.248 292.366C106.028 294.398 102.678 295.336 99.148 295.18C95.6438 295.023 92.0623 293.643 88.4034 290.985C85.4145 288.797 83.1471 286.374 81.6011 283.664C80.0551 280.981 79.1791 278.141 78.9472 275.171C78.7153 272.201 79.076 269.231 80.0036 266.235C80.9312 263.239 82.3741 260.373 84.3323 257.664C85.6722 255.788 87.1409 254.094 88.7126 252.557C90.3102 251.02 91.985 249.796 93.7371 248.858C95.4892 247.946 97.2928 247.477 99.0965 247.503C100.926 247.503 102.678 248.154 104.404 249.405C105.822 250.447 106.852 251.567 107.445 252.766C108.037 253.964 108.372 255.241 108.372 256.595C108.372 257.95 108.192 259.331 107.78 260.79C107.368 262.223 106.852 263.708 106.208 265.193C105.847 266.339 105.306 267.668 104.585 269.231C103.863 270.794 103.09 272.305 102.266 273.764C101.441 275.223 100.694 276.448 100.024 277.386C99.5603 278.037 99.3026 278.558 99.2511 278.949C99.1996 279.34 99.3799 279.652 99.7664 279.939C100.101 280.199 100.539 280.382 101.081 280.486C101.622 280.59 102.163 280.59 102.73 280.486C103.734 280.382 104.611 280.017 105.358 279.366C106.131 278.74 106.904 277.855 107.702 276.734C108.682 275.38 109.455 273.842 110.047 272.097C110.64 270.351 111.284 268.606 111.902 266.834C112.547 265.063 113.371 263.473 114.402 262.014C115.484 260.503 116.643 259.487 117.829 258.966C119.014 258.471 120.431 258.81 122.08 260.008C123.472 261.024 124.348 262.379 124.734 264.099C125.121 265.818 125.095 267.772 124.605 269.908C124.141 272.071 123.317 274.311 122.183 276.656C121.049 279.001 119.658 281.32 118.035 283.612L118.138 283.638ZM96.5972 270.69C97.3186 269.7 97.9112 268.606 98.375 267.407C98.8388 266.235 99.0192 265.089 98.9419 263.994C98.8646 262.9 98.3493 262.04 97.4474 261.363C96.3395 260.555 95.2831 260.425 94.2524 260.946C93.2218 261.467 92.2426 262.353 91.315 263.656C90.7482 264.437 90.3359 265.323 90.0525 266.287C89.7691 267.251 89.6402 268.215 89.666 269.179C89.6918 270.143 89.8979 271.029 90.2329 271.862C90.5936 272.67 91.1089 273.347 91.7788 273.842C92.2684 274.207 92.758 274.311 93.2218 274.181C93.6856 274.051 94.2009 273.686 94.7162 273.061C95.2573 272.462 95.8499 271.654 96.5714 270.69H96.5972Z" fill="#2B2B2B"/>
<path d="M139.783 252.4C138.933 253.39 138.057 254.172 137.155 254.719C136.253 255.266 135.3 255.605 134.321 255.787C133.342 255.969 132.337 255.995 131.332 255.891C130.147 255.761 128.91 255.474 127.621 255.031C126.333 254.588 125.045 254.041 123.756 253.39C122.468 252.739 121.231 252.009 119.995 251.176C118.758 250.342 117.624 249.482 116.568 248.544C113.166 245.6 110.925 242.37 109.817 238.826C108.709 235.283 108.657 231.636 109.662 227.884C110.667 224.133 112.677 220.485 115.666 216.942C117.109 215.249 118.629 213.712 120.278 212.331C121.927 210.95 123.576 209.856 125.251 209.074C126.926 208.266 128.523 207.876 130.069 207.85C131.615 207.85 132.955 208.345 134.166 209.361C135.326 210.351 136.021 211.367 136.253 212.409C136.511 213.425 136.434 214.441 136.073 215.379C135.712 216.317 135.171 217.203 134.501 218.01C133.47 219.235 132.362 220.251 131.177 221.058C129.992 221.866 128.807 222.986 127.621 224.393C126.256 226.008 125.637 227.676 125.792 229.395C125.947 231.115 126.951 232.782 128.807 234.397C129.502 234.997 130.25 235.57 130.997 236.091C131.744 236.612 132.465 237.107 133.187 237.55C133.908 237.993 134.604 238.436 135.3 238.853C135.995 239.269 136.614 239.66 137.207 240.051C137.799 240.442 138.314 240.806 138.752 241.197C140.788 242.969 141.922 244.767 142.128 246.564C142.334 248.388 141.561 250.342 139.809 252.4H139.783Z" fill="#2B2B2B"/>
<path d="M177.658 213.425C174.386 216.708 170.985 219.079 167.481 220.564C163.976 222.023 160.498 222.388 157.071 221.658C153.618 220.929 150.32 218.949 147.177 215.718C144.574 213.061 142.745 210.273 141.663 207.381C140.58 204.463 140.168 201.545 140.426 198.575C140.684 195.605 141.508 192.739 142.925 189.926C144.342 187.138 146.223 184.559 148.594 182.188C150.217 180.573 151.943 179.114 153.747 177.863C155.577 176.613 157.406 175.675 159.313 175.05C161.194 174.424 163.023 174.294 164.827 174.607C166.63 174.919 168.254 175.857 169.748 177.368C170.985 178.619 171.809 179.895 172.222 181.198C172.634 182.501 172.737 183.803 172.505 185.132C172.299 186.461 171.861 187.815 171.243 189.17C170.598 190.525 169.851 191.88 168.975 193.234C168.434 194.303 167.687 195.527 166.708 196.934C165.729 198.341 164.724 199.696 163.667 201.024C162.611 202.327 161.683 203.395 160.884 204.203C160.318 204.776 159.983 205.245 159.88 205.61C159.776 205.974 159.88 206.339 160.214 206.678C160.524 206.99 160.91 207.225 161.426 207.433C161.941 207.616 162.482 207.72 163.049 207.694C164.054 207.746 164.981 207.537 165.832 207.042C166.682 206.547 167.609 205.818 168.563 204.854C169.748 203.682 170.753 202.275 171.629 200.66C172.505 199.044 173.407 197.429 174.309 195.788C175.211 194.146 176.319 192.713 177.581 191.437C178.895 190.108 180.183 189.3 181.446 189.014C182.709 188.727 184.048 189.3 185.466 190.733C186.651 191.958 187.321 193.443 187.424 195.214C187.527 196.986 187.166 198.888 186.342 200.946C185.517 203.004 184.358 205.089 182.863 207.225C181.369 209.361 179.617 211.419 177.633 213.399L177.658 213.425ZM158.514 197.09C159.39 196.231 160.137 195.241 160.807 194.146C161.451 193.052 161.838 191.958 161.915 190.864C162.018 189.769 161.657 188.832 160.859 188.024C159.905 187.06 158.875 186.721 157.767 187.06C156.659 187.399 155.551 188.128 154.443 189.248C153.773 189.926 153.206 190.733 152.768 191.645C152.33 192.557 152.047 193.495 151.918 194.459C151.789 195.423 151.84 196.335 152.047 197.194C152.253 198.054 152.665 198.81 153.258 199.409C153.696 199.852 154.159 200.034 154.623 199.982C155.113 199.93 155.654 199.643 156.298 199.122C156.916 198.601 157.664 197.924 158.514 197.09Z" fill="#2B2B2B"/>
<path d="M233.569 161.268C231.56 162.805 229.808 163.508 228.313 163.404C226.819 163.3 225.298 162.57 223.701 161.242C223.34 160.877 222.954 160.486 222.516 160.043C222.103 159.6 221.665 159.157 221.227 158.662C220.789 158.167 220.325 157.646 219.862 157.099C219.398 156.552 218.934 156.005 218.47 155.484C217.208 154.025 216.022 152.774 214.915 151.758C213.807 150.742 212.596 150.299 211.307 150.43C209.813 150.56 208.396 150.742 207.056 150.977C205.716 151.211 204.402 151.368 203.088 151.446C201.516 151.602 200.022 151.55 198.63 151.316C197.239 151.081 195.925 150.69 194.688 150.143C193.477 149.596 192.343 148.893 191.287 148.059C190.256 147.225 189.328 146.235 188.504 145.141C187.396 143.63 186.778 142.093 186.675 140.53C186.571 138.966 186.906 137.455 187.628 135.996C188.375 134.564 189.432 133.287 190.849 132.245C191.982 131.385 193.168 130.89 194.404 130.734C195.641 130.577 197.136 130.864 198.811 131.594C199.764 132.036 200.795 132.479 201.851 132.948C202.907 133.391 203.99 133.782 205.046 134.121C206.18 134.537 207.313 134.85 208.396 135.033C209.504 135.215 210.56 135.241 211.565 135.033C212.57 134.85 213.472 134.459 214.27 133.86C215.095 133.235 215.713 132.401 216.1 131.333C216.486 130.291 216.77 129.118 216.873 127.842C217.053 126.253 217.105 124.611 217.027 122.918C216.924 121.224 216.873 119.739 216.821 118.463C216.873 116.743 217.13 115.284 217.568 114.112C218.007 112.94 218.728 111.976 219.733 111.22C221.124 110.178 222.619 109.579 224.268 109.449C225.917 109.318 227.489 109.579 228.983 110.23C230.477 110.881 231.74 111.898 232.745 113.252C233.26 113.93 233.724 114.737 234.136 115.649C234.549 116.561 234.909 117.551 235.167 118.619C235.45 119.687 235.605 120.808 235.682 121.98C235.76 123.152 235.682 124.351 235.502 125.575C235.193 127.686 234.729 129.561 234.136 131.125C233.544 132.714 232.874 134.329 232.075 135.996C231.56 137.065 231.173 137.924 230.941 138.576C230.709 139.253 230.581 139.852 230.555 140.399C230.555 140.946 230.606 141.572 230.735 142.275C230.89 142.666 231.096 143.161 231.379 143.786C231.663 144.412 231.998 145.115 232.41 145.87C232.822 146.652 233.26 147.46 233.724 148.346C234.214 149.231 234.703 150.117 235.193 151.003C236.249 152.879 236.636 154.728 236.378 156.526C236.12 158.324 235.115 159.861 233.441 161.137L233.569 161.268Z" fill="#2B2B2B"/>
<path d="M280.029 131.385C277.195 133.13 274.257 134.485 271.268 135.475C268.254 136.465 265.316 136.934 262.456 136.882C259.57 136.83 256.891 136.1 254.417 134.72C251.918 133.339 249.779 131.124 247.975 128.076C245.991 124.741 244.806 121.433 244.445 118.176C244.085 114.893 244.394 111.767 245.425 108.771C246.429 105.775 248.027 102.987 250.217 100.46C252.382 97.933 255.035 95.6924 258.153 93.7906C261.168 91.9669 264.208 90.6121 267.275 89.7524C270.366 88.8926 273.381 88.606 276.319 88.8926C279.256 89.1792 282.013 90.1692 284.564 91.8106C287.115 93.4779 289.356 95.9008 291.263 99.1054C292.809 101.685 293.659 104.446 293.84 107.416C294.02 110.386 293.582 113.356 292.551 116.326C291.521 119.296 289.949 122.084 287.862 124.663C285.749 127.268 283.172 129.509 280.08 131.385H280.029ZM271.603 118.906C273.02 118.046 274.103 117.082 274.85 116.04C275.597 114.998 276.087 113.903 276.293 112.783C276.499 111.663 276.499 110.543 276.293 109.5C276.087 108.432 275.7 107.468 275.159 106.556C274.463 105.41 273.665 104.55 272.711 104.029C271.758 103.482 270.753 103.196 269.697 103.17C268.64 103.144 267.558 103.274 266.476 103.612C265.394 103.951 264.363 104.394 263.384 104.993C262.044 105.801 260.962 106.843 260.137 108.068C259.313 109.292 258.9 110.673 258.849 112.158C258.797 113.643 259.261 115.18 260.189 116.743C260.988 118.098 261.992 119.088 263.178 119.739C264.363 120.391 265.677 120.625 267.094 120.495C268.511 120.364 269.98 119.843 271.526 118.906H271.603Z" fill="#2B2B2B"/>
<path d="M329.087 105.253C325.299 107.076 321.717 108.197 318.342 108.64C314.967 109.082 311.849 108.822 308.989 107.884C306.103 106.92 303.501 105.279 301.156 102.934C298.811 100.589 296.75 97.541 294.972 93.7634C294.508 92.7734 294.096 91.7833 293.735 90.7933C293.4 89.8033 293.117 88.8133 292.936 87.8494C292.756 86.8854 292.627 85.9736 292.601 85.0878C292.498 82.8733 292.911 80.9454 293.838 79.3301C294.766 77.6887 296.183 76.4122 298.141 75.4743C300.048 74.5624 301.645 74.1716 302.882 74.3279C304.119 74.4842 305.124 74.9532 305.871 75.7087C306.618 76.4643 307.211 77.2719 307.649 78.1316C307.958 78.6788 308.267 79.278 308.577 79.8511C308.86 80.4504 309.169 81.0235 309.478 81.5706C309.788 82.1438 310.097 82.6909 310.38 83.212C310.664 83.733 310.947 84.228 311.205 84.6709C312.467 86.7812 313.704 88.4486 314.941 89.7252C316.178 91.0018 317.466 91.7833 318.806 92.096C320.146 92.4086 321.589 92.1741 323.16 91.4447C324.552 90.7673 325.608 89.9075 326.304 88.8133C327 87.7452 327.36 86.3904 327.412 84.8012C327.438 83.212 327.18 81.3361 326.613 79.1998C326.458 78.4182 326.252 77.6627 326.02 76.9332C325.789 76.2037 325.531 75.4743 325.273 74.7708C325.016 74.0674 324.784 73.3379 324.552 72.6084C324.32 71.879 324.139 71.1495 323.985 70.3939C323.727 68.5181 323.933 66.8247 324.578 65.2876C325.247 63.7505 326.639 62.4739 328.803 61.4318C330.684 60.546 332.359 60.3636 333.828 60.9107C335.296 61.4578 336.662 62.4999 337.925 64.0631C338.388 64.6884 338.852 65.3657 339.29 66.1213C339.728 66.8508 340.14 67.6063 340.553 68.3879C340.965 69.1695 341.377 69.9771 341.764 70.7847C342.15 71.5924 342.537 72.4521 342.872 73.2858C345.01 78.1577 345.809 82.5867 345.294 86.5728C344.778 90.5589 343.129 94.1281 340.321 97.2284C337.538 100.329 333.776 103.012 329.087 105.279V105.253Z" fill="#2B2B2B"/>
<path d="M368.769 86.4165C367.558 86.8854 366.399 87.1199 365.343 87.146C364.286 87.146 363.281 87.0157 362.354 86.7031C361.426 86.3904 360.524 85.9215 359.674 85.3223C358.721 84.6188 357.767 83.7591 356.865 82.743C355.964 81.727 355.088 80.6067 354.289 79.4083C353.49 78.2098 352.743 76.9332 352.073 75.6045C351.403 74.2758 350.836 72.9472 350.346 71.6185C348.801 67.3718 348.388 63.4379 349.135 59.8165C349.883 56.1691 351.583 52.9646 354.263 50.1769C356.943 47.3893 360.447 45.2009 364.801 43.5856C366.863 42.804 368.95 42.2308 371.037 41.84C373.124 41.4492 375.108 41.319 376.937 41.4492C378.793 41.5795 380.39 42.0224 381.73 42.7519C383.07 43.5074 384.023 44.6016 384.564 46.0867C385.08 47.5196 385.208 48.744 384.925 49.7601C384.642 50.7762 384.126 51.6099 383.328 52.2612C382.555 52.9125 381.653 53.4075 380.699 53.7722C379.205 54.3194 377.736 54.6841 376.319 54.8144C374.902 54.9446 373.33 55.3354 371.604 55.9867C369.646 56.7162 368.306 57.8886 367.61 59.4518C366.914 61.041 366.992 62.9689 367.842 65.2876C368.177 66.1734 368.538 67.0332 368.924 67.8408C369.336 68.6745 369.723 69.4561 370.135 70.2116C370.547 70.9671 370.96 71.6706 371.346 72.374C371.733 73.0774 372.093 73.7287 372.428 74.354C372.763 74.9793 373.021 75.5524 373.227 76.1256C374.155 78.6788 374.283 80.7891 373.562 82.4825C372.866 84.1759 371.243 85.5046 368.744 86.4425L368.769 86.4165Z" fill="#2B2B2B"/>
<path d="M437.282 64.0383C435.839 64.3769 434.396 64.3509 432.979 63.9862C431.562 63.6214 430.196 62.9701 428.882 61.9801C427.568 60.9901 426.331 59.7656 425.172 58.2545C424.76 57.6032 424.322 56.8477 423.858 55.9619C423.394 55.0761 422.956 54.1382 422.518 53.0961C422.08 52.08 421.642 50.9858 421.23 49.8655C420.817 48.7452 420.431 47.625 420.044 46.4786C419.658 45.3323 419.323 44.212 419.014 43.1439C418.705 42.0496 418.447 41.0336 418.241 40.0696C417.081 34.8591 416.901 30.5343 417.7 27.0953C418.498 23.6824 420.328 20.9208 423.239 18.8626C426.151 16.8044 430.145 15.1891 435.272 14.0428C438.673 13.2873 441.972 12.8444 445.192 12.7662C448.413 12.6881 451.376 13.0528 454.082 13.8344C456.787 14.616 459.08 15.9447 460.961 17.7944C462.842 19.6442 464.131 22.1192 464.801 25.1934C465.316 27.5382 465.342 29.6745 464.878 31.6545C464.414 33.6346 463.538 35.3801 462.224 36.9433C460.91 38.4804 459.261 39.8351 457.251 40.9554C455.241 42.0757 452.948 42.9875 450.397 43.6389C448.748 44.0297 447.202 44.2902 445.785 44.3944C444.368 44.4986 443.105 44.681 441.972 44.9155C441.121 45.0978 440.658 45.5407 440.58 46.192C440.503 46.8434 440.58 47.7031 440.812 48.7452C440.889 49.0839 440.967 49.4747 441.07 49.8916C441.173 50.3084 441.276 50.7513 441.405 51.1942C441.534 51.6371 441.662 52.106 441.791 52.575C441.92 53.044 442.049 53.4869 442.152 53.8776C442.255 54.2945 442.332 54.6592 442.41 54.9979C442.951 57.4729 442.822 59.453 441.997 60.964C441.199 62.4751 439.575 63.4912 437.205 64.0383H437.282ZM440.245 35.9533C441.199 35.7448 442.152 35.4583 443.08 35.1196C444.007 34.7809 444.857 34.364 445.656 33.8951C446.429 33.4261 447.099 32.9051 447.64 32.3059C448.181 31.7067 448.594 31.0553 448.825 30.3519C449.057 29.6485 449.109 28.919 448.929 28.1114C448.748 27.2516 448.413 26.5221 447.949 25.975C447.486 25.4279 446.945 24.985 446.326 24.6724C445.708 24.3597 445.038 24.1513 444.342 24.0471C443.646 23.9429 442.951 23.9168 442.255 23.969C441.559 24.0211 440.967 24.0992 440.4 24.2295C439.421 24.464 438.545 24.7245 437.823 25.0371C437.102 25.3498 436.483 25.7405 436.045 26.1834C435.582 26.6263 435.272 27.1474 435.118 27.7466C434.963 28.3458 434.963 29.0232 435.118 29.8048C435.324 30.6906 435.53 31.4982 435.762 32.2277C435.994 32.9572 436.277 33.5564 436.561 34.1035C436.844 34.6246 437.179 35.0414 437.566 35.3541C437.952 35.6667 438.339 35.8751 438.777 35.9793C439.215 36.0835 439.704 36.0835 440.22 35.9793L440.245 35.9533Z" fill="#2B2B2B"/>
<path d="M497.005 55.4141C492.419 56.0133 488.296 55.8309 484.637 54.867C480.979 53.903 477.99 52.0532 475.697 49.3698C473.403 46.6864 471.935 43.0911 471.368 38.5839C470.878 34.8844 471.084 31.5496 471.986 28.5536C472.862 25.5835 474.305 22.9783 476.289 20.7898C478.273 18.6014 480.669 16.8037 483.452 15.449C486.235 14.0942 489.301 13.1824 492.599 12.7655C494.867 12.4789 497.108 12.3747 499.299 12.4789C501.489 12.5832 503.524 12.974 505.405 13.6513C507.26 14.3026 508.832 15.3187 510.069 16.6735C511.306 18.0282 512.053 19.7738 512.336 21.9101C512.568 23.6817 512.465 25.1927 512.001 26.4693C511.563 27.7459 510.842 28.8401 509.889 29.7781C508.909 30.716 507.776 31.5236 506.462 32.201C505.148 32.8783 503.73 33.5036 502.21 34.0507C501.154 34.5718 499.814 35.0928 498.191 35.6139C496.567 36.1349 494.944 36.6039 493.321 37.0207C491.697 37.4376 490.332 37.6981 489.198 37.8544C488.399 37.9586 487.858 38.115 487.549 38.3494C487.24 38.5839 487.111 38.9487 487.188 39.4176C487.24 39.8345 487.42 40.2774 487.704 40.7463C487.987 41.2153 488.374 41.606 488.837 41.9447C489.585 42.5961 490.461 42.9868 491.44 43.1171C492.419 43.2474 493.578 43.2213 494.918 43.039C496.567 42.8305 498.216 42.3355 499.865 41.58C501.54 40.8245 503.215 40.095 504.916 39.3394C506.616 38.61 508.343 38.115 510.12 37.8805C511.976 37.646 513.47 37.7763 514.655 38.3234C515.841 38.8705 516.562 40.1471 516.82 42.1532C517.052 43.8466 516.665 45.4358 515.686 46.9208C514.707 48.3798 513.29 49.6824 511.409 50.8288C509.528 51.949 507.363 52.913 504.89 53.6946C502.416 54.4762 499.788 55.0493 497.031 55.4141H497.005ZM491.543 30.6899C492.754 30.5336 493.939 30.2209 495.124 29.752C496.31 29.283 497.237 28.6317 497.959 27.8241C498.68 27.0164 498.964 26.0525 498.835 24.9322C498.654 23.5775 498.036 22.6917 496.954 22.2748C495.872 21.858 494.558 21.7538 492.986 21.9622C492.032 22.0925 491.105 22.379 490.229 22.848C489.327 23.2909 488.554 23.8901 487.884 24.5675C487.214 25.2449 486.699 26.0004 486.338 26.8341C485.977 27.6417 485.874 28.4754 485.977 29.3352C486.055 29.9604 486.312 30.3773 486.725 30.6378C487.137 30.8983 487.755 31.0025 488.554 30.9765C489.353 30.9765 490.358 30.8723 491.543 30.716V30.6899Z" fill="#2B2B2B"/>
<path d="M547.405 48.7701C545.137 48.8743 542.999 48.6659 540.963 48.1449C538.928 47.6238 537.227 46.6859 535.887 45.3312C534.547 43.9764 533.774 42.1006 533.594 39.6777C533.542 39.0524 533.491 38.375 533.439 37.6456C533.388 36.9161 533.336 36.1606 533.285 35.379C533.233 34.5974 533.182 33.8158 533.156 33.0082C533.13 32.2005 533.079 31.3929 533.053 30.6113C533.027 29.8297 532.975 29.0481 532.95 28.3447C532.898 27.1723 532.563 26.4168 531.919 26.1041C531.301 25.7915 530.476 25.5831 529.497 25.531C528.956 25.5049 528.389 25.4789 527.745 25.4789C527.127 25.4789 526.482 25.4528 525.838 25.4007C525.194 25.3747 524.498 25.3226 523.828 25.2705C522.437 25.1662 521.329 24.6452 520.453 23.6812C519.603 22.7173 519.139 21.3104 519.036 19.4867C518.984 18.2362 519.165 17.2462 519.628 16.5688C520.067 15.8654 520.685 15.3443 521.484 14.9796C522.282 14.6148 523.133 14.3022 524.06 14.0417C525.22 13.8072 526.25 13.5727 527.152 13.3643C528.054 13.1559 528.879 12.9474 529.574 12.739C530.322 12.5306 530.914 12.2701 531.352 11.8793C531.79 11.5145 532.048 10.8893 532.125 9.97742C532.203 9.35215 532.254 8.72688 532.331 8.10161C532.383 7.47635 532.434 6.87713 532.512 6.27791C532.589 5.6787 532.666 5.15764 532.769 4.68869C533.233 3.09946 533.903 1.95314 534.753 1.24971C535.629 0.546283 537.021 0.129438 538.928 0.051279C540.448 -0.0268796 541.659 0.103385 542.561 0.442072C543.462 0.754706 544.184 1.30182 544.699 2.0313C545.215 2.76078 545.678 3.77684 546.065 5.02738C546.194 5.6787 546.323 6.22581 546.426 6.69476C546.529 7.16371 546.632 7.63266 546.709 8.04951C546.786 8.46635 546.864 8.8832 546.941 9.30005C547.018 9.71689 547.095 10.1858 547.199 10.6808C547.327 11.4885 547.688 12.0877 548.281 12.4785C548.848 12.8693 549.543 13.1038 550.342 13.208C551.038 13.2861 551.708 13.3643 552.352 13.4164C552.996 13.4685 553.64 13.5467 554.259 13.5988C554.877 13.6509 555.495 13.703 556.088 13.7551C557.454 13.8854 558.69 14.3022 559.85 15.0056C561.009 15.7091 561.602 16.9856 561.679 18.7833C561.757 20.3725 561.37 21.6752 560.494 22.6912C559.644 23.7073 558.51 24.3326 557.144 24.5149C555.959 24.6452 554.8 24.7754 553.692 24.8797C552.584 24.9839 551.682 25.0881 550.986 25.2183C550.394 25.2965 549.878 25.5049 549.414 25.8697C548.951 26.2344 548.693 26.9118 548.641 27.9539C548.641 28.5271 548.693 29.1002 548.693 29.6994C548.693 30.2987 548.693 30.8718 548.745 31.471C548.796 32.0703 548.822 32.6434 548.848 33.1905C548.848 33.7637 548.899 34.3108 548.951 34.8319C549.002 35.379 549.054 35.874 549.131 36.3169C549.26 37.3069 549.569 38.0103 550.033 38.4532C550.497 38.8961 551.321 39.0785 552.455 39.0264C553.279 38.9743 553.975 38.7919 554.516 38.4272C555.083 38.0624 555.598 37.7237 556.114 37.385C556.629 37.0464 557.196 36.864 557.84 36.8379C558.897 36.7858 559.669 37.0463 560.159 37.5674C560.649 38.1145 560.906 38.9222 560.958 40.0424C561.009 41.293 560.649 42.4653 559.85 43.5075C559.051 44.5496 557.969 45.4614 556.655 46.217C555.315 46.9725 553.846 47.5717 552.223 48.0407C550.6 48.4836 549.002 48.7441 547.405 48.8222V48.7701Z" fill="#2B2B2B"/>
<path d="M604.661 49.4226C601.543 49.2142 599.276 48.0939 597.884 46.0618C596.493 44.0297 595.9 41.3983 596.106 38.1417C596.184 36.9172 596.287 35.5364 596.39 34.0254C596.493 32.5143 596.622 30.9251 596.776 29.2577C596.931 27.5903 597.085 25.8708 597.266 24.0992C597.446 22.3276 597.652 20.5821 597.884 18.8365C598.09 17.091 598.348 15.3976 598.606 13.7562C598.863 12.1149 599.147 10.6038 599.456 9.19697C600.229 6.14879 601.311 3.9343 602.703 2.52744C604.12 1.12059 606.258 0.52137 609.118 0.729793C611.437 0.88611 613.138 1.7198 614.22 3.20482C615.302 4.68983 615.921 6.53958 616.127 8.72802C616.178 9.69198 616.204 10.8383 616.23 12.1409C616.256 13.4436 616.23 14.8765 616.23 16.3876C616.204 17.9247 616.153 19.4879 616.101 21.051C616.049 22.6403 615.998 24.2034 615.921 25.7405C615.843 27.2777 615.766 28.7366 615.689 30.1174C615.611 31.4982 615.534 32.7227 615.431 33.7648C615.173 37.6728 614.684 40.8252 613.988 43.1699C613.292 45.5147 612.21 47.2081 610.767 48.1981C609.324 49.1881 607.289 49.605 604.686 49.4226H604.661Z" fill="#2B2B2B"/>
<path d="M638.128 53.4856C636.067 53.225 634.135 52.8864 632.357 52.4956C630.553 52.1048 628.93 51.6879 627.461 51.1929C625.992 50.6979 624.704 50.1508 623.622 49.5516C622.179 48.77 621.045 47.9103 620.169 46.9984C619.293 46.0605 618.958 44.836 619.164 43.2989C619.396 41.5534 620.04 40.2507 621.148 39.3649C622.256 38.4791 623.751 38.1665 625.658 38.401C626.714 38.5312 627.796 38.8178 628.956 39.2347C630.089 39.6515 631.326 40.0944 632.692 40.5373C634.032 40.9802 635.552 41.3189 637.252 41.5273C638.463 41.6836 639.571 41.7618 640.576 41.7357C641.581 41.7357 642.406 41.5534 643.024 41.2147C643.642 40.902 644.029 40.381 644.106 39.6515C644.209 38.9481 644.055 38.3749 643.694 37.8799C643.333 37.411 642.586 36.916 641.427 36.3949C640.293 35.8999 638.618 35.3007 636.376 34.6494C633.439 33.7375 630.965 32.6172 628.956 31.3406C626.946 30.064 625.477 28.553 624.55 26.8335C623.622 25.088 623.287 23.1079 623.57 20.8674C623.828 18.8092 624.653 17.1418 625.992 15.8652C627.358 14.5886 629.084 13.6247 631.223 12.9734C633.362 12.322 635.706 11.9573 638.309 11.8531C640.885 11.7489 643.539 11.8791 646.245 12.2439C648.074 12.4784 649.904 12.8431 651.759 13.286C653.614 13.755 655.315 14.3281 656.835 15.0055C658.355 15.6829 659.566 16.4905 660.442 17.3763C661.318 18.2621 661.679 19.2521 661.55 20.3463C661.37 21.7532 660.906 22.8474 660.159 23.6029C659.411 24.3585 658.51 24.8535 657.479 25.088C656.448 25.3224 655.392 25.3745 654.336 25.2182C652.918 25.0358 651.501 24.6972 650.136 24.2543C648.77 23.7853 647.533 23.4987 646.451 23.3424C645.575 23.2382 644.802 23.2121 644.08 23.2643C643.385 23.3424 642.818 23.4987 642.38 23.7853C641.942 24.0719 641.71 24.4887 641.633 25.0358C641.53 25.8695 642.045 26.599 643.153 27.1982C644.287 27.8235 646.142 28.553 648.744 29.3606C651.269 30.1422 653.459 31.1583 655.315 32.3567C657.17 33.5551 658.561 35.0401 659.463 36.8117C660.391 38.5833 660.674 40.6676 660.365 43.0905C660.081 45.305 659.334 47.1547 658.097 48.6397C656.861 50.1248 655.263 51.2971 653.279 52.1308C651.295 52.9645 649.028 53.4856 646.451 53.694C643.874 53.9024 641.092 53.7982 638.077 53.4074L638.128 53.4856Z" fill="#2B2B2B"/>
<path d="M712.931 71.1509C709.246 70.1088 705.974 68.6498 703.088 66.7219C700.228 64.794 697.909 62.5013 696.131 59.844C694.353 57.1866 693.193 54.2426 692.704 51.012C692.189 47.7815 692.446 44.3165 693.451 40.643C694.43 37.0738 695.847 33.9995 697.703 31.3942C699.558 28.7889 701.722 26.6787 704.222 25.0373C706.721 23.396 709.452 22.1976 712.415 21.442C715.378 20.6865 718.47 20.3478 721.665 20.452C724.86 20.5562 728.055 21.0512 731.276 21.937C735.193 23.0313 738.723 24.5944 741.841 26.6526C744.958 28.6847 747.535 31.1337 749.596 33.9474C751.632 36.7611 752.997 39.8614 753.667 43.2222C754.337 46.583 754.157 50.1262 753.126 53.8518C751.992 57.9681 750.112 61.4071 747.458 64.1948C744.804 66.9824 741.609 69.0927 737.898 70.4996C734.188 71.9325 730.194 72.7141 725.917 72.8183C721.64 72.9225 717.337 72.3754 712.982 71.177L712.931 71.1509ZM721.021 54.3468C723.804 55.1284 726.174 55.2847 728.107 54.8418C730.039 54.3989 731.585 53.5392 732.745 52.2626C733.904 50.986 734.703 49.5531 735.141 47.9638C735.553 46.4267 735.682 44.9678 735.476 43.587C735.296 42.2062 734.858 40.9296 734.136 39.7572C733.415 38.5848 732.513 37.5688 731.379 36.7351C730.246 35.9014 728.957 35.2501 727.489 34.8593C726.097 34.4685 724.706 34.3122 723.314 34.3903C721.923 34.4685 720.609 34.755 719.398 35.2501C718.187 35.7711 717.131 36.5006 716.229 37.4645C715.327 38.4285 714.708 39.6009 714.322 40.9556C713.91 42.4667 713.781 43.9257 713.884 45.3586C714.013 46.7915 714.348 48.0941 714.966 49.3186C715.559 50.517 716.358 51.5852 717.388 52.471C718.419 53.3568 719.63 53.9821 720.995 54.3729L721.021 54.3468Z" fill="#2B2B2B"/>
<path d="M772.062 89.413C768.145 87.8498 764.898 85.974 762.27 83.7855C759.642 81.5971 757.71 79.1221 756.421 76.3344C755.159 73.5468 754.566 70.4986 754.643 67.1638C754.746 63.8291 755.545 60.2077 757.04 56.3258C757.452 55.3098 757.89 54.3198 758.354 53.3819C758.818 52.444 759.359 51.5842 759.925 50.7766C760.492 49.9689 761.085 49.2655 761.703 48.6402C763.224 47.051 764.898 46.061 766.728 45.6181C768.532 45.1752 770.438 45.3576 772.448 46.1652C774.432 46.9468 775.772 47.8586 776.519 48.9008C777.241 49.9168 777.601 50.985 777.55 52.0532C777.524 53.1213 777.344 54.1113 777.009 55.0232C776.828 55.6485 776.622 56.2737 776.39 56.8729C776.158 57.4982 775.952 58.0974 775.746 58.7227C775.54 59.348 775.36 59.9211 775.179 60.5203C774.999 61.0935 774.844 61.6406 774.69 62.1356C774.02 64.5064 773.659 66.5646 773.582 68.3362C773.504 70.1078 773.839 71.5928 774.509 72.7912C775.205 73.9897 776.339 74.9015 777.936 75.5528C779.379 76.126 780.719 76.3084 781.982 76.0739C783.244 75.8655 784.455 75.2142 785.64 74.146C786.826 73.0778 787.985 71.6189 789.145 69.7431C789.608 69.0917 790.021 68.4144 790.381 67.737C790.742 67.0596 791.103 66.3822 791.438 65.7049C791.773 65.0275 792.134 64.3501 792.494 63.6988C792.855 63.0475 793.267 62.3961 793.731 61.7709C794.916 60.3119 796.282 59.2959 797.828 58.7227C799.4 58.1756 801.281 58.3319 803.497 59.2177C805.429 59.9993 806.692 61.1196 807.31 62.5785C807.928 64.0375 808.083 65.783 807.851 67.763C807.722 68.5446 807.542 69.3523 807.31 70.1599C807.078 70.9675 806.82 71.8012 806.537 72.6349C806.253 73.4686 805.944 74.3284 805.635 75.1881C805.326 76.0478 804.965 76.8815 804.579 77.7152C802.517 82.6132 799.863 86.2345 796.643 88.5793C793.396 90.924 789.686 92.1225 785.537 92.1746C781.389 92.2267 776.88 91.2888 772.036 89.3609L772.062 89.413Z" fill="#2B2B2B"/>
<path d="M812.752 105.905C811.593 105.305 810.639 104.628 809.892 103.872C809.171 103.117 808.578 102.257 808.166 101.345C807.753 100.433 807.496 99.4434 807.341 98.4274C807.186 97.229 807.161 95.9524 807.29 94.5976C807.393 93.2168 807.624 91.836 807.934 90.4292C808.243 89.0223 808.655 87.6155 809.171 86.2086C809.686 84.8017 810.253 83.473 810.871 82.1965C812.881 78.1583 815.458 75.1882 818.601 73.2343C821.745 71.3064 825.223 70.3685 829.062 70.4727C832.901 70.5508 836.895 71.6711 841.018 73.7553C843.002 74.7453 844.831 75.8917 846.532 77.1683C848.258 78.4448 849.675 79.7996 850.861 81.2586C852.02 82.7175 852.793 84.1765 853.18 85.6875C853.566 87.1986 853.386 88.6576 852.69 90.0644C852.02 91.4192 851.195 92.3571 850.268 92.8521C849.34 93.3471 848.387 93.5295 847.356 93.3731C846.351 93.2429 845.398 92.9302 844.47 92.4613C843.053 91.7318 841.791 90.8981 840.734 89.9342C839.678 88.9702 838.312 88.0844 836.689 87.2247C834.808 86.2607 833.082 86.0783 831.458 86.6254C829.835 87.1726 828.495 88.5794 827.387 90.7678C826.975 91.6015 826.589 92.4613 826.279 93.321C825.944 94.1808 825.661 95.0145 825.403 95.8221C825.146 96.6297 824.888 97.4374 824.656 98.1929C824.424 98.9484 824.192 99.6779 823.96 100.355C823.729 101.033 823.497 101.606 823.213 102.153C822.002 104.576 820.559 106.113 818.859 106.738C817.158 107.364 815.097 107.077 812.726 105.852L812.752 105.905Z" fill="#2B2B2B"/>
<path d="M875.618 141.338C874.382 140.478 873.428 139.41 872.733 138.133C872.037 136.857 871.573 135.372 871.393 133.73C871.212 132.089 871.264 130.317 871.573 128.442C871.754 127.686 872.011 126.852 872.346 125.914C872.681 124.977 873.042 124.013 873.506 122.97C873.944 121.928 874.433 120.886 874.974 119.818C875.515 118.75 876.057 117.682 876.623 116.64C877.19 115.597 877.757 114.581 878.35 113.617C878.917 112.654 879.483 111.768 880.05 110.934C883.039 106.531 886.054 103.457 889.069 101.711C892.083 99.9658 895.33 99.4708 898.783 100.2C902.235 100.93 906.152 102.806 910.48 105.828C913.366 107.808 915.917 109.97 918.159 112.315C920.401 114.634 922.178 117.083 923.441 119.636C924.704 122.189 925.322 124.768 925.27 127.425C925.219 130.083 924.291 132.714 922.513 135.32C921.174 137.3 919.628 138.785 917.901 139.775C916.149 140.791 914.268 141.338 912.258 141.416C910.249 141.494 908.161 141.181 905.971 140.478C903.781 139.748 901.591 138.68 899.375 137.247C897.958 136.283 896.721 135.32 895.691 134.356C894.634 133.366 893.655 132.558 892.702 131.907C891.98 131.412 891.362 131.359 890.846 131.724C890.331 132.115 889.764 132.74 889.172 133.626C888.965 133.913 888.759 134.225 888.527 134.59C888.296 134.955 888.038 135.32 887.806 135.736C887.574 136.153 887.316 136.544 887.059 136.961C886.801 137.378 886.569 137.768 886.363 138.107C886.131 138.446 885.925 138.785 885.745 139.071C884.328 141.155 882.807 142.406 881.158 142.823C879.509 143.24 877.68 142.771 875.67 141.364L875.618 141.338ZM897.958 124.377C898.757 124.95 899.607 125.445 900.509 125.888C901.385 126.331 902.287 126.696 903.137 126.957C904.013 127.217 904.838 127.347 905.636 127.347C906.435 127.347 907.182 127.191 907.852 126.904C908.522 126.592 909.089 126.123 909.527 125.445C910.017 124.716 910.3 123.987 910.403 123.257C910.506 122.528 910.429 121.824 910.223 121.147C910.017 120.469 909.707 119.844 909.321 119.245C908.909 118.646 908.471 118.125 907.981 117.656C907.492 117.187 907.002 116.77 906.538 116.457C905.714 115.884 904.915 115.415 904.193 115.102C903.472 114.764 902.776 114.581 902.132 114.555C901.488 114.529 900.921 114.634 900.38 114.92C899.839 115.207 899.349 115.676 898.911 116.353C898.396 117.109 897.958 117.812 897.623 118.489C897.262 119.167 897.005 119.766 896.824 120.339C896.644 120.912 896.567 121.459 896.592 121.928C896.592 122.423 896.747 122.866 896.979 123.257C897.211 123.648 897.546 124.013 897.984 124.325L897.958 124.377Z" fill="#2B2B2B"/>
<path d="M916.358 172.131C915.353 171.298 914.58 170.412 914.039 169.5C913.498 168.588 913.111 167.65 912.905 166.66C912.699 165.67 912.648 164.654 912.751 163.638C912.854 162.44 913.111 161.189 913.55 159.886C913.962 158.584 914.477 157.255 915.096 155.952C915.714 154.65 916.41 153.347 917.208 152.097C918.007 150.846 918.857 149.674 919.734 148.579C922.568 145.088 925.737 142.77 929.216 141.571C932.694 140.373 936.301 140.269 940.037 141.207C943.748 142.144 947.407 144.098 950.988 147.068C952.689 148.475 954.235 150.012 955.626 151.628C957.017 153.243 958.125 154.91 958.95 156.578C959.775 158.245 960.213 159.86 960.238 161.424C960.29 162.987 959.8 164.368 958.821 165.592C957.868 166.764 956.863 167.494 955.858 167.78C954.853 168.067 953.874 168.015 952.921 167.65C951.967 167.285 951.091 166.79 950.292 166.113C949.056 165.097 948.025 163.977 947.2 162.804C946.376 161.632 945.242 160.46 943.825 159.261C942.202 157.906 940.553 157.333 938.852 157.516C937.152 157.698 935.528 158.74 933.982 160.668C933.39 161.398 932.849 162.127 932.333 162.909C931.818 163.664 931.354 164.42 930.942 165.175C930.504 165.905 930.092 166.634 929.705 167.338C929.319 168.041 928.932 168.692 928.571 169.292C928.211 169.891 927.824 170.412 927.463 170.881C925.763 172.965 924.011 174.137 922.207 174.398C920.403 174.632 918.471 173.903 916.41 172.183L916.358 172.131Z" fill="#2B2B2B"/>
<path d="M947.225 199.018C945.55 197.429 944.545 195.918 944.184 194.433C943.824 192.974 944.004 191.489 944.725 189.978C945.447 188.493 946.581 186.904 948.152 185.21C948.719 184.611 949.338 183.96 950.059 183.256C950.78 182.579 951.502 181.875 952.249 181.172C952.996 180.469 953.769 179.765 954.542 179.088C955.315 178.41 956.088 177.759 956.861 177.16C957.609 176.561 958.33 176.014 959 175.519C959.67 175.024 960.288 174.659 960.829 174.372C963.097 173.304 965.338 172.939 967.503 173.304C969.667 173.669 971.806 174.841 973.893 176.821C975.825 178.671 976.598 180.703 976.212 182.97C975.825 185.236 974.511 187.581 972.27 189.978C971.625 190.681 970.878 191.437 970.054 192.245C969.229 193.052 968.353 193.86 967.426 194.667C966.498 195.475 965.57 196.257 964.617 197.038C963.664 197.82 962.736 198.523 961.808 199.149C960.881 199.774 960.031 200.347 959.206 200.79C958.382 201.259 957.66 201.571 957.016 201.78C955.238 202.275 953.563 202.301 951.966 201.832C950.368 201.389 948.796 200.425 947.276 198.966L947.225 199.018ZM975.98 173.122C973.558 170.829 972.192 168.771 971.909 166.999C971.6 165.228 971.96 163.795 972.94 162.753C974.202 161.398 975.748 160.721 977.578 160.695C979.407 160.668 981.288 161.085 983.195 161.971C985.101 162.831 986.776 163.977 988.219 165.358C989.301 166.4 990.152 167.52 990.744 168.719C991.337 169.917 991.569 171.168 991.44 172.392C991.311 173.643 990.718 174.841 989.636 175.988C988.425 177.29 987.034 177.968 985.514 178.02C983.968 178.046 982.396 177.629 980.773 176.717C979.149 175.805 977.552 174.607 976.006 173.148L975.98 173.122Z" fill="#2B2B2B"/>
<path d="M978.198 231.687C975.956 229.212 974.05 226.581 972.504 223.793C970.958 221.006 969.927 218.192 969.412 215.326C968.922 212.46 969.077 209.647 969.953 206.911C970.803 204.176 972.529 201.622 975.132 199.226C977.966 196.594 980.955 194.771 984.047 193.781C987.139 192.791 990.257 192.478 993.374 192.895C996.492 193.312 999.481 194.354 1002.37 196.021C1005.25 197.688 1007.93 199.877 1010.38 202.586C1012.75 205.192 1014.66 207.953 1016.07 210.845C1017.52 213.737 1018.39 216.655 1018.68 219.625C1018.96 222.595 1018.55 225.513 1017.44 228.379C1016.33 231.245 1014.43 233.928 1011.69 236.455C1009.5 238.487 1006.98 239.868 1004.12 240.624C1001.28 241.379 998.322 241.535 995.23 241.093C992.163 240.65 989.149 239.66 986.211 238.07C983.274 236.481 980.594 234.371 978.172 231.687H978.198ZM988.659 220.902C989.767 222.126 990.901 223.012 992.06 223.559C993.22 224.106 994.379 224.367 995.513 224.367C996.647 224.367 997.703 224.132 998.708 223.715C999.687 223.298 1000.56 222.725 1001.34 222.022C1002.32 221.11 1002.99 220.146 1003.32 219.104C1003.66 218.062 1003.76 217.02 1003.58 215.952C1003.4 214.883 1003.06 213.841 1002.52 212.851C1001.98 211.835 1001.34 210.923 1000.56 210.064C999.507 208.891 998.296 208.031 996.93 207.458C995.565 206.885 994.173 206.729 992.704 206.989C991.236 207.25 989.844 207.979 988.505 209.23C987.345 210.298 986.572 211.496 986.186 212.799C985.799 214.102 985.799 215.457 986.211 216.837C986.624 218.218 987.422 219.573 988.633 220.902H988.659Z" fill="#2B2B2B"/>
<path d="M1007.02 264.8C1006.23 263.758 1005.69 262.716 1005.35 261.7C1005.02 260.684 1004.86 259.668 1004.91 258.678C1004.94 257.688 1005.12 256.672 1005.43 255.682C1005.81 254.536 1006.35 253.389 1007.05 252.217C1007.75 251.044 1008.55 249.872 1009.45 248.752C1010.35 247.632 1011.33 246.537 1012.38 245.495C1013.44 244.453 1014.52 243.515 1015.66 242.655C1019.21 239.92 1022.82 238.383 1026.48 238.018C1030.14 237.679 1033.67 238.383 1037.09 240.154C1040.5 241.926 1043.61 244.688 1046.42 248.413C1047.76 250.185 1048.92 252.034 1049.9 253.936C1050.88 255.838 1051.6 257.714 1052.01 259.538C1052.43 261.361 1052.48 263.029 1052.17 264.54C1051.86 266.051 1051.09 267.301 1049.82 268.265C1048.61 269.203 1047.5 269.672 1046.45 269.698C1045.39 269.724 1044.46 269.464 1043.61 268.891C1042.76 268.317 1042.04 267.614 1041.4 266.78C1040.42 265.504 1039.67 264.175 1039.13 262.846C1038.59 261.518 1037.76 260.111 1036.66 258.626C1035.39 256.932 1033.9 255.994 1032.2 255.76C1030.5 255.552 1028.67 256.177 1026.74 257.688C1025.99 258.261 1025.29 258.86 1024.62 259.486C1023.95 260.111 1023.34 260.736 1022.74 261.361C1022.15 261.987 1021.58 262.586 1021.04 263.159C1020.5 263.758 1019.99 264.279 1019.5 264.774C1019.01 265.269 1018.52 265.712 1018.05 266.051C1015.91 267.692 1013.96 268.422 1012.15 268.239C1010.35 268.057 1008.62 266.885 1007 264.722L1007.02 264.8Z" fill="#2B2B2B"/>
<path d="M1030.97 298.122C1029.71 296.195 1029.06 294.475 1029.04 292.964C1029.04 291.453 1029.52 290.046 1030.56 288.743C1031.59 287.467 1033.05 286.164 1034.96 284.888C1035.66 284.419 1036.4 283.95 1037.25 283.429C1038.1 282.934 1038.98 282.413 1039.86 281.892C1040.73 281.37 1041.63 280.875 1042.56 280.407C1043.46 279.938 1044.37 279.469 1045.24 279.078C1046.12 278.661 1046.94 278.296 1047.72 277.984C1048.49 277.671 1049.16 277.436 1049.78 277.28C1052.25 276.759 1054.49 276.915 1056.5 277.775C1058.54 278.635 1060.34 280.276 1061.91 282.673C1063.38 284.914 1063.67 287.102 1062.76 289.212C1061.86 291.323 1060.06 293.303 1057.33 295.126C1056.53 295.673 1055.63 296.221 1054.65 296.82C1053.64 297.419 1052.61 298.018 1051.55 298.591C1050.47 299.165 1049.39 299.712 1048.28 300.233C1047.17 300.754 1046.12 301.223 1045.06 301.64C1044.03 302.056 1043.05 302.369 1042.15 302.63C1041.25 302.89 1040.48 303.046 1039.78 303.073C1037.95 303.151 1036.3 302.76 1034.83 301.952C1033.36 301.145 1032.08 299.842 1030.92 298.07L1030.97 298.122ZM1064.82 279.573C1063 276.785 1062.12 274.466 1062.25 272.669C1062.35 270.871 1063.02 269.569 1064.21 268.761C1065.73 267.745 1067.4 267.432 1069.18 267.823C1070.98 268.214 1072.68 269.074 1074.36 270.35C1076.01 271.653 1077.4 273.138 1078.51 274.805C1079.33 276.056 1079.9 277.332 1080.18 278.661C1080.49 279.964 1080.44 281.214 1080.03 282.413C1079.61 283.611 1078.76 284.627 1077.45 285.513C1075.96 286.503 1074.46 286.842 1072.97 286.529C1071.47 286.216 1070.03 285.409 1068.64 284.158C1067.25 282.908 1065.98 281.37 1064.8 279.573H1064.82Z" fill="#2B2B2B"/>
<path d="M1054.82 336.317C1053.69 334.337 1052.89 332.305 1052.43 330.22C1051.96 328.136 1052.01 326.182 1052.58 324.384C1053.15 322.561 1054.46 321.024 1056.5 319.747C1057.01 319.408 1057.58 319.07 1058.22 318.679C1058.84 318.288 1059.49 317.897 1060.16 317.507C1060.83 317.116 1061.5 316.699 1062.19 316.308C1062.89 315.917 1063.56 315.5 1064.25 315.11C1064.95 314.719 1065.59 314.328 1066.21 313.989C1067.22 313.39 1067.73 312.739 1067.73 312.035C1067.73 311.332 1067.53 310.524 1067.14 309.586C1066.91 309.091 1066.68 308.57 1066.39 307.997C1066.11 307.424 1065.85 306.851 1065.57 306.252C1065.31 305.652 1065.03 305.027 1064.74 304.376C1064.2 303.073 1064.15 301.823 1064.61 300.624C1065.08 299.4 1066.08 298.358 1067.65 297.446C1068.74 296.821 1069.69 296.534 1070.49 296.638C1071.29 296.716 1072.06 297.029 1072.76 297.576C1073.45 298.123 1074.12 298.748 1074.77 299.452C1075.51 300.39 1076.18 301.197 1076.8 301.927C1077.39 302.63 1077.96 303.282 1078.45 303.829C1078.97 304.402 1079.48 304.793 1080.02 305.027C1080.56 305.262 1081.23 305.21 1082.03 304.845C1082.62 304.636 1083.19 304.402 1083.76 304.167C1084.33 303.933 1084.89 303.698 1085.43 303.49C1085.97 303.282 1086.49 303.125 1086.95 302.995C1088.55 302.682 1089.86 302.761 1090.9 303.23C1091.93 303.698 1092.91 304.767 1093.86 306.434C1094.61 307.763 1095.04 308.909 1095.17 309.873C1095.3 310.837 1095.17 311.723 1094.76 312.53C1094.35 313.338 1093.68 314.198 1092.75 315.11C1092.26 315.526 1091.82 315.891 1091.44 316.204C1091.05 316.516 1090.72 316.803 1090.38 317.09C1090.05 317.376 1089.71 317.637 1089.38 317.871C1089.04 318.132 1088.68 318.418 1088.29 318.731C1087.65 319.226 1087.29 319.825 1087.21 320.529C1087.13 321.232 1087.21 321.962 1087.52 322.717C1087.78 323.368 1088.01 324.02 1088.24 324.619C1088.47 325.218 1088.71 325.817 1088.96 326.417C1089.2 327.016 1089.43 327.589 1089.66 328.136C1090.17 329.413 1090.38 330.741 1090.28 332.07C1090.17 333.425 1089.35 334.545 1087.8 335.431C1086.44 336.212 1085.12 336.473 1083.84 336.16C1082.55 335.848 1081.49 335.118 1080.69 333.998C1080.02 332.982 1079.4 332.018 1078.79 331.054C1078.19 330.09 1077.68 329.334 1077.27 328.787C1076.93 328.292 1076.49 327.928 1075.98 327.667C1075.46 327.407 1074.71 327.485 1073.79 327.902C1073.3 328.188 1072.81 328.449 1072.29 328.735C1071.78 328.996 1071.26 329.282 1070.77 329.595C1070.28 329.908 1069.79 330.194 1069.3 330.481C1068.81 330.767 1068.35 331.054 1067.91 331.341C1067.47 331.627 1067.06 331.914 1066.7 332.174C1065.88 332.747 1065.39 333.321 1065.23 333.946C1065.05 334.571 1065.26 335.379 1065.82 336.395C1066.24 337.124 1066.73 337.645 1067.29 337.984C1067.86 338.323 1068.4 338.635 1068.94 338.948C1069.46 339.235 1069.9 339.678 1070.21 340.251C1070.72 341.189 1070.88 341.996 1070.62 342.674C1070.36 343.351 1069.77 343.976 1068.81 344.523C1067.73 345.149 1066.55 345.331 1065.26 345.096C1063.97 344.862 1062.68 344.289 1061.39 343.455C1060.1 342.595 1058.92 341.553 1057.76 340.303C1056.63 339.052 1055.65 337.724 1054.87 336.343L1054.82 336.317Z" fill="#2B2B2B"/>
<path d="M1054.54 369.925C1053.69 368.075 1053.51 366.33 1053.97 364.74C1054.44 363.151 1055.39 362.005 1056.81 361.353C1058.27 360.676 1059.74 360.546 1061.16 360.963C1062.6 361.38 1064 362.317 1065.39 363.75C1066.37 364.584 1067.47 365.47 1068.66 366.408C1069.84 367.346 1071.03 368.179 1072.21 368.935C1073.4 369.69 1074.48 370.238 1075.49 370.576C1076.49 370.915 1077.32 370.941 1077.96 370.654C1078.5 370.42 1078.89 369.742 1079.15 368.674C1079.4 367.606 1079.48 365.887 1079.35 363.516C1079.27 361.614 1079.35 359.738 1079.61 357.862C1079.84 355.987 1080.23 354.189 1080.74 352.443C1081.26 350.698 1081.93 349.109 1082.75 347.624C1083.58 346.139 1084.53 344.836 1085.61 343.716C1086.7 342.595 1087.93 341.71 1089.32 341.058C1090.71 340.407 1092.16 340.146 1093.6 340.277C1095.04 340.407 1096.38 340.902 1097.59 341.762C1098.81 342.621 1099.76 343.794 1100.43 345.305C1101.41 347.467 1101.85 349.499 1101.69 351.375C1101.54 353.251 1100.79 355.179 1099.48 357.159C1097.98 358.983 1096.59 360.65 1095.3 362.187C1094.01 363.724 1092.98 365.183 1092.26 366.59C1091.85 367.398 1091.54 368.205 1091.36 369.013C1091.18 369.821 1091.2 370.446 1091.41 370.889C1091.72 371.566 1092.29 372.087 1093.14 372.4C1093.96 372.713 1094.84 372.869 1095.71 372.843C1097.52 372.921 1099.53 372.895 1101.77 372.739C1104.01 372.608 1106.1 372.556 1107.98 372.608C1109.63 372.817 1111.15 373.312 1112.54 374.119C1113.93 374.927 1115.01 376.178 1115.81 377.923C1117.07 380.711 1117.28 382.951 1116.43 384.697C1115.58 386.416 1114.06 387.797 1111.89 388.813C1110.58 389.438 1108.98 389.881 1107.15 390.168C1105.32 390.455 1103.34 390.585 1101.23 390.585C1099.11 390.585 1096.95 390.507 1094.79 390.298C1092.62 390.09 1090.48 389.829 1088.45 389.438C1086.41 389.074 1084.56 388.683 1082.86 388.24C1079.82 387.432 1076.85 386.468 1073.92 385.348C1071 384.228 1068.25 382.899 1065.7 381.414C1063.14 379.903 1060.9 378.21 1058.97 376.282C1057.04 374.354 1055.54 372.218 1054.46 369.847L1054.54 369.925Z" fill="#2B2B2B"/>
<path d="M58.1748 226.033C49.7244 232.02 42.6569 241.954 46.6424 250.555C50.6278 259.156 61.6203 256.701 65.7226 251.959C69.825 247.217 71.7737 244.711 64.6239 243.77C57.4741 242.828 44.1586 253.202 46.3088 261.927C48.4589 270.651 50.2331 273.821 54.2463 276.554C58.2595 279.286 64.1916 281.161 69.7522 277.488C75.3129 273.815 78.1973 268.319 69.2144 267.504C60.2315 266.689 50.2711 276.402 49.4362 282.899C48.6012 289.395 52.4965 298.721 52.4965 298.721" stroke="#5E5E5E" stroke-width="3" stroke-linecap="round" stroke-linejoin="round"/>
<path d="M871.418 88L882.042 94.4139" stroke="#5E5E5E" stroke-width="2" stroke-linecap="round" stroke-linejoin="round"/>
<path d="M884.293 76L885.879 82.0413L887.465 88.0825" stroke="#5E5E5E" stroke-width="2" stroke-linecap="round" stroke-linejoin="round"/>
<path d="M899.074 76L896.171 88.1514" stroke="#5E5E5E" stroke-width="2" stroke-linecap="round" stroke-linejoin="round"/>
</g>
<defs>
<clipPath id="clip0_609_95">
<rect width="1117" height="412" fill="white"/>
</clipPath>
</defs>
</svg>
