<svg width="364" height="24" viewBox="0 0 364 24" fill="none" xmlns="http://www.w3.org/2000/svg">
<line y1="14.5" x2="155" y2="14.5" stroke="#ED9C63"/>
<line x1="209" y1="14.5" x2="364" y2="14.5" stroke="#ED9C63"/>
<path d="M184.056 10.272C184.056 11.1307 183.92 11.92 183.648 12.64C183.376 13.3547 182.992 13.9707 182.496 14.488C182 15.0053 181.403 15.408 180.704 15.696C180.011 15.9787 179.243 16.12 178.4 16.12C177.557 16.12 176.789 15.9787 176.096 15.696C175.403 15.408 174.808 15.0053 174.312 14.488C173.816 13.9707 173.432 13.3547 173.16 12.64C172.888 11.92 172.752 11.1307 172.752 10.272C172.752 9.41333 172.888 8.62667 173.16 7.912C173.432 7.192 173.816 6.57333 174.312 6.056C174.808 5.53333 175.403 5.128 176.096 4.84C176.789 4.552 177.557 4.408 178.4 4.408C179.243 4.408 180.011 4.552 180.704 4.84C181.403 5.128 182 5.53333 182.496 6.056C182.992 6.57333 183.376 7.192 183.648 7.912C183.92 8.62667 184.056 9.41333 184.056 10.272ZM182.464 10.272C182.464 9.568 182.368 8.936 182.176 8.376C181.984 7.816 181.712 7.344 181.36 6.96C181.008 6.57067 180.581 6.272 180.08 6.064C179.579 5.856 179.019 5.752 178.4 5.752C177.787 5.752 177.229 5.856 176.728 6.064C176.227 6.272 175.797 6.57067 175.44 6.96C175.088 7.344 174.816 7.816 174.624 8.376C174.432 8.936 174.336 9.568 174.336 10.272C174.336 10.976 174.432 11.608 174.624 12.168C174.816 12.7227 175.088 13.1947 175.44 13.584C175.797 13.968 176.227 14.264 176.728 14.472C177.229 14.6747 177.787 14.776 178.4 14.776C179.019 14.776 179.579 14.6747 180.08 14.472C180.581 14.264 181.008 13.968 181.36 13.584C181.712 13.1947 181.984 12.7227 182.176 12.168C182.368 11.608 182.464 10.976 182.464 10.272ZM187.136 9.52C187.392 8.96533 187.707 8.53333 188.08 8.224C188.454 7.90933 188.91 7.752 189.448 7.752C189.619 7.752 189.782 7.77067 189.936 7.808C190.096 7.84533 190.238 7.904 190.36 7.984L190.256 9.048C190.224 9.18133 190.144 9.248 190.016 9.248C189.942 9.248 189.832 9.232 189.688 9.2C189.544 9.168 189.382 9.152 189.2 9.152C188.944 9.152 188.715 9.18933 188.512 9.264C188.315 9.33867 188.136 9.45067 187.976 9.6C187.822 9.744 187.68 9.92533 187.552 10.144C187.43 10.3573 187.318 10.6027 187.216 10.88V16H185.784V7.896H186.6C186.755 7.896 186.862 7.92533 186.92 7.984C186.979 8.04267 187.019 8.144 187.04 8.288L187.136 9.52Z" fill="#ED9C63"/>
</svg>
