<svg width="25" height="25" viewBox="0 0 25 25" fill="none" xmlns="http://www.w3.org/2000/svg">
<path d="M12.1786 11.0605L7.70703 22.2395" stroke="#9B460A" stroke-width="2" stroke-linecap="round" stroke-linejoin="round"/>
<path d="M9.91412 17.2908C10.6066 17.5981 11.373 17.7688 12.1793 17.7688C15.2663 17.7688 17.7688 15.2663 17.7688 12.1793C17.7688 9.09235 15.2663 6.58984 12.1793 6.58984C9.09235 6.58984 6.58984 9.09235 6.58984 12.1793C6.58984 13.1975 6.86224 14.152 7.33795 14.9741" stroke="#9B460A" stroke-width="2" stroke-linecap="round" stroke-linejoin="round"/>
<path d="M12.179 23.358C18.353 23.358 23.358 18.353 23.358 12.179C23.358 6.005 18.353 1 12.179 1C6.005 1 1 6.005 1 12.179C1 18.353 6.005 23.358 12.179 23.358Z" stroke="#9B460A" stroke-width="2"/>
</svg>
