<svg width="23" height="24" viewBox="0 0 23 24" fill="none" xmlns="http://www.w3.org/2000/svg">
<path d="M4.8491 11.7522C6.68771 11.9784 8.36864 10.6131 8.60357 8.70285C8.8385 6.79262 6.65104 4.95161 7.44566 2.41602C3.51338 2.98574 2.15809 6.1546 1.9454 7.884C1.71047 9.79423 3.0105 11.5261 4.8491 11.7522Z" stroke="#6E6E6E" stroke-width="1.5" stroke-linejoin="round"/>
<path d="M6.70964 19.666C4.86519 15.185 4.57248 11.227 4.92019 8.16602" stroke="#6E6E6E" stroke-width="1.5" stroke-linecap="round" stroke-linejoin="round"/>
<path d="M9.1117 17.4319C10.2377 19.7244 12.9572 20.3566 15.186 18.8439C17.4148 17.3313 17.7654 13.1402 21.0833 11.6791C17.5427 7.75696 13.1264 9.17291 11.1086 10.5423C8.87979 12.0549 7.98576 15.1395 9.1117 17.4319Z" stroke="#6E6E6E" stroke-width="1.5" stroke-linejoin="round"/>
<path d="M5.75 21.5827C8.02871 17.6577 10.795 15.2864 13.4167 13.916" stroke="#6E6E6E" stroke-width="1.5" stroke-linecap="round" stroke-linejoin="round"/>
</svg>
