<svg width="18" height="20" viewBox="0 0 18 20" fill="none" xmlns="http://www.w3.org/2000/svg">
<path d="M15.9881 6.15393L15.6179 5.47579C15.3379 4.96292 15.198 4.70649 14.9598 4.60423C14.7216 4.50198 14.4522 4.58267 13.9135 4.74404L12.9983 5.01614C12.6544 5.09986 12.2935 5.05236 11.9794 4.88204L11.7268 4.72816C11.4574 4.54608 11.2503 4.27763 11.1356 3.96208L10.8852 3.17249C10.7205 2.64997 10.6381 2.38871 10.4421 2.23928C10.2461 2.08984 9.98572 2.08984 9.46492 2.08984H8.62882C8.1081 2.08984 7.8477 2.08984 7.65165 2.23928C7.45564 2.38871 7.37329 2.64997 7.20862 3.17249L6.95815 3.96208C6.84349 4.27763 6.63634 4.54608 6.36703 4.72816L6.11437 4.88204C5.8003 5.05236 5.43944 5.09986 5.09548 5.01614L4.18031 4.74404C3.64156 4.58267 3.37219 4.50198 3.134 4.60423C2.89582 4.70649 2.75584 4.96292 2.47586 5.47579L2.10568 6.15393C1.84324 6.63467 1.71202 6.87504 1.73749 7.13092C1.76296 7.38681 1.93862 7.59301 2.28994 8.00542L3.06322 8.91796C3.25222 9.1705 3.38641 9.61067 3.38641 10.0064C3.38641 10.4023 3.25227 10.8423 3.06325 11.095L2.28994 12.0075C1.93862 12.42 1.76296 12.6261 1.73749 12.8821C1.71202 13.1379 1.84324 13.3783 2.10568 13.859L2.47585 14.5371C2.75582 15.05 2.89582 15.3065 3.134 15.4087C3.37219 15.511 3.64156 15.4303 4.18033 15.2689L5.09545 14.9968C5.43947 14.913 5.8004 14.9606 6.1145 15.131L6.36712 15.2849C6.63638 15.4669 6.84348 15.7353 6.95812 16.0509L7.20862 16.8406C7.37329 17.3631 7.45564 17.6243 7.65165 17.7738C7.8477 17.9232 8.1081 17.9232 8.62882 17.9232H9.46492C9.98572 17.9232 10.2461 17.9232 10.4421 17.7738C10.6381 17.6243 10.7205 17.3631 10.8852 16.8406L11.1357 16.0509C11.2503 15.7353 11.4574 15.4669 11.7267 15.2849L11.9793 15.131C12.2934 14.9606 12.6543 14.913 12.9983 14.9968L13.9135 15.2689C14.4522 15.4303 14.7216 15.511 14.9598 15.4087C15.198 15.3065 15.3379 15.05 15.6179 14.5371L15.9881 13.859C16.2505 13.3783 16.3817 13.1379 16.3563 12.8821C16.3308 12.6261 16.1551 12.42 15.8038 12.0075L15.0305 11.095C14.8415 10.8423 14.7073 10.4023 14.7073 10.0064C14.7073 9.61067 14.8416 9.1705 15.0305 8.91796L15.8038 8.00542C16.1551 7.59301 16.3308 7.38681 16.3563 7.13092C16.3817 6.87504 16.2505 6.63467 15.9881 6.15393Z" stroke="#6E6E6E" stroke-width="1.5" stroke-linecap="round"/>
<path d="M11.6406 9.99935C11.6406 11.5296 10.4654 12.7702 9.0156 12.7702C7.56585 12.7702 6.39062 11.5296 6.39062 9.99935C6.39062 8.46906 7.56585 7.22852 9.0156 7.22852C10.4654 7.22852 11.6406 8.46906 11.6406 9.99935Z" stroke="#6E6E6E" stroke-width="1.5"/>
</svg>
